<?xml version="1.0" encoding="UTF-8" standalone="no"?>
<!-- Created with Inkscape (http://www.inkscape.org/) -->

<svg
   width="100mm"
   height="100mm"
   viewBox="0 0 100 100"
   version="1.1"
   id="svg5"
   inkscape:version="1.1.2 (0a00cf5339, 2022-02-04)"
   sodipodi:docname="abstract-distance.svg"
   xmlns:inkscape="http://www.inkscape.org/namespaces/inkscape"
   xmlns:sodipodi="http://sodipodi.sourceforge.net/DTD/sodipodi-0.dtd"
   xmlns="http://www.w3.org/2000/svg"
   xmlns:svg="http://www.w3.org/2000/svg">
  <sodipodi:namedview
     id="namedview7"
     pagecolor="#ffffff"
     bordercolor="#666666"
     borderopacity="1.0"
     inkscape:pageshadow="2"
     inkscape:pageopacity="0.0"
     inkscape:pagecheckerboard="0"
     inkscape:document-units="mm"
     showgrid="false"
     width="100mm"
     inkscape:zoom="0.91780853"
     inkscape:cx="221.72381"
     inkscape:cy="287.09692"
     inkscape:window-width="1850"
     inkscape:window-height="1016"
     inkscape:window-x="0"
     inkscape:window-y="0"
     inkscape:window-maximized="1"
     inkscape:current-layer="layer1" />
  <defs
     id="defs2">
    <marker
       style="overflow:visible"
       id="Arrow1Lend"
       refX="0"
       refY="0"
       orient="auto"
       inkscape:stockid="Arrow1Lend"
       inkscape:isstock="true">
      <path
         transform="matrix(-0.8,0,0,-0.8,-10,0)"
         style="fill:context-stroke;fill-rule:evenodd;stroke:context-stroke;stroke-width:1pt"
         d="M 0,0 5,-5 -12.5,0 5,5 Z"
         id="path942" />
    </marker>
  </defs>
  <g
     inkscape:label="Livello 1"
     inkscape:groupmode="layer"
     id="layer1">
    <path
       style="fill:none;stroke:#000000;stroke-width:0.507143;stroke-linecap:butt;stroke-linejoin:miter;stroke-miterlimit:4;stroke-dasharray:none;stroke-opacity:1;marker-end:url(#Arrow1Lend)"
       d="M 7.575396,99.985911 V 0.98454854"
       id="path857" />
    <path
       style="fill:none;stroke:#000000;stroke-width:0.507143;stroke-linecap:butt;stroke-linejoin:miter;stroke-miterlimit:4;stroke-dasharray:none;stroke-opacity:1;marker-end:url(#Arrow1Lend)"
       d="m 0,92.575396 98.87693,0"
       id="path1207"
       sodipodi:nodetypes="cc" />
    <rect
       style="fill:#ceccca;fill-opacity:1;stroke:#333333;stroke-width:1;stroke-miterlimit:4;stroke-dasharray:none;stroke-opacity:1"
       id="rect10512"
       width="40.046398"
       height="39.414082"
       x="22.393059"
       y="39.701023"
       ry="0" />
    <path
       style="fill:#ceccca;fill-opacity:1;stroke:#333333;stroke-width:1;stroke-linecap:butt;stroke-linejoin:miter;stroke-miterlimit:4;stroke-dasharray:none;stroke-opacity:1"
       d="m 22.404028,56.051947 c 0.71288,-5.434303 14.253486,-5.279777 19.294683,-8.113609 5.041197,-2.833832 5.824061,-9.234501 11.155487,-8.068242 5.331426,1.166259 8.835978,10.420835 9.329195,16.526172 0.493217,6.105337 -0.728423,12.134941 -6.139588,16.679716 -5.411165,4.544775 -19.285223,8.530661 -24.23148,4.386583 C 26.866068,73.318489 33.76071,67.271481 31.855365,63.371062 29.95002,59.470643 21.691148,61.48625 22.404028,56.051947 Z"
       id="path1165"
       sodipodi:nodetypes="zzzzzzzz" />
    <rect
       style="fill:#9d9a95;fill-opacity:1;stroke:#333333;stroke-width:0.999815;stroke-linecap:round;stroke-linejoin:miter;stroke-miterlimit:4;stroke-dasharray:none;stroke-opacity:0.992157"
       id="rect14141-3"
       width="6.0712528"
       height="6.0712528"
       x="69.674133"
       y="10.139963"
       ry="0"
       transform="rotate(45)" />
    <path
       style="fill:none;stroke:#000000;stroke-width:0.5;stroke-linecap:butt;stroke-linejoin:miter;stroke-miterlimit:4;stroke-dasharray:1, 0.5;stroke-dashoffset:0;stroke-opacity:1"
       d="M 38.002911,21.006184 V 39.262266"
       id="path11085" />
    <path
       style="fill:none;stroke:#000000;stroke-width:0.5;stroke-linecap:butt;stroke-linejoin:miter;stroke-miterlimit:4;stroke-dasharray:1, 0.5;stroke-dashoffset:0;stroke-opacity:1"
       d="M 38.002911,21.006184 62.439457,79.115105"
       id="path11167"
       sodipodi:nodetypes="cc" />
    <path
       sodipodi:type="star"
       style="fill:#fe6310;fill-opacity:1;stroke:#662400;stroke-width:15.0348;stroke-linecap:round;stroke-linejoin:round;stroke-miterlimit:4;stroke-dasharray:none;stroke-opacity:1"
       id="path1467"
       inkscape:flatsided="false"
       sodipodi:sides="5"
       sodipodi:cx="67.090332"
       sodipodi:cy="-281.73453"
       sodipodi:r1="69.392136"
       sodipodi:r2="34.696068"
       sodipodi:arg1="-1.5707963"
       sodipodi:arg2="-0.9424778"
       inkscape:rounded="0"
       inkscape:randomized="0"
       d="m 67.090334,-351.12666 20.393835,41.32242 45.602011,6.62636 -32.99793,32.16503 7.78975,45.41774 -40.787668,-21.44335 -40.787675,21.44335 7.789754,-45.41774 -32.9979212,-32.16503 45.6020052,-6.62636 z"
       transform="matrix(0.06649986,0,0,0.06649986,33.423569,39.899111)"
       inkscape:transform-center-y="-0.44064873" />
    <path
       style="fill:none;stroke:#000000;stroke-width:0.5;stroke-linecap:butt;stroke-linejoin:miter;stroke-miterlimit:4;stroke-dasharray:1, 0.5;stroke-dashoffset:0;stroke-opacity:1"
       d="M 92.886963,29.858152 62.439457,39.701023"
       id="path11268"
       sodipodi:nodetypes="cc" />
    <path
       style="fill:none;stroke:#000000;stroke-width:0.5;stroke-linecap:butt;stroke-linejoin:miter;stroke-miterlimit:4;stroke-dasharray:1, 0.5;stroke-dashoffset:0;stroke-opacity:1"
       d="M 92.886963,29.858152 22.393059,79.115105"
       id="path11620"
       sodipodi:nodetypes="cc" />
    <path
       id="circle4318"
       style="fill:#015ffb;fill-opacity:1;stroke:#002666;stroke-width:0.999815;stroke-linecap:round;stroke-linejoin:round;stroke-miterlimit:4;stroke-dasharray:none;stroke-opacity:1"
       d="m 93.823097,24.926658 a 4.3886665,4.3886665 0 0 0 -4.38869,4.388687 4.3886665,4.3886665 0 0 0 4.38869,4.388687 4.3886665,4.3886665 0 0 0 4.3149,-3.596621 3.4093004,3.4093004 0 0 1 -1.33075,0.27382 3.4093004,3.4093004 0 0 1 -3.4093,-3.409302 3.4093004,3.4093004 0 0 1 0.67958,-2.037617 4.3886665,4.3886665 0 0 0 -0.25443,-0.0077 z" />
  </g>
</svg>
