<?xml version="1.0" encoding="UTF-8" standalone="no"?>
<!-- Created with Inkscape (http://www.inkscape.org/) -->

<svg
   width="200mm"
   height="100mm"
   viewBox="0 0 200 100"
   version="1.1"
   id="svg5"
   inkscape:version="1.1.2 (0a00cf5339, 2022-02-04)"
   sodipodi:docname="knn.svg"
   xmlns:inkscape="http://www.inkscape.org/namespaces/inkscape"
   xmlns:sodipodi="http://sodipodi.sourceforge.net/DTD/sodipodi-0.dtd"
   xmlns="http://www.w3.org/2000/svg"
   xmlns:svg="http://www.w3.org/2000/svg">
  <sodipodi:namedview
     id="namedview7"
     pagecolor="#ffffff"
     bordercolor="#666666"
     borderopacity="1.0"
     inkscape:pageshadow="2"
     inkscape:pageopacity="0.0"
     inkscape:pagecheckerboard="0"
     inkscape:document-units="mm"
     showgrid="false"
     width="200mm"
     inkscape:zoom="1.7120706"
     inkscape:cx="291.1679"
     inkscape:cy="208.22739"
     inkscape:window-width="1850"
     inkscape:window-height="1016"
     inkscape:window-x="0"
     inkscape:window-y="0"
     inkscape:window-maximized="1"
     inkscape:current-layer="layer1" />
  <defs
     id="defs2">
    <marker
       style="overflow:visible;"
       id="Arrow1Lend"
       refX="0.0"
       refY="0.0"
       orient="auto"
       inkscape:stockid="Arrow1Lend"
       inkscape:isstock="true">
      <path
         transform="scale(0.8) rotate(180) translate(12.5,0)"
         style="fill-rule:evenodd;fill:context-stroke;stroke:context-stroke;stroke-width:1.0pt;"
         d="M 0.0,0.0 L 5.0,-5.0 L -12.5,0.0 L 5.0,5.0 L 0.0,0.0 z "
         id="path942" />
    </marker>
  </defs>
  <g
     inkscape:label="Livello 1"
     inkscape:groupmode="layer"
     id="layer1">
    <path
       style="fill:none;stroke:#000000;stroke-width:0.507143;stroke-linecap:butt;stroke-linejoin:miter;stroke-miterlimit:4;stroke-dasharray:none;stroke-opacity:1;marker-end:url(#Arrow1Lend)"
       d="M 7.575396,99.985911 V 0.98454854"
       id="path857" />
    <path
       style="fill:none;stroke:#000000;stroke-width:0.507143;stroke-linecap:butt;stroke-linejoin:miter;stroke-miterlimit:4;stroke-dasharray:none;stroke-opacity:1;marker-end:url(#Arrow1Lend)"
       d="m 0,92.575396 198.24813,0"
       id="path1207"
       sodipodi:nodetypes="cc" />
    <path
       style="fill:none;stroke:#000000;stroke-width:1;stroke-linecap:butt;stroke-linejoin:miter;stroke-miterlimit:4;stroke-dasharray:2, 1;stroke-dashoffset:0;stroke-opacity:1"
       d="M 95.509894,45.473764 89.911305,16.486473"
       id="path14544"
       sodipodi:nodetypes="cc" />
    <path
       sodipodi:type="star"
       style="fill:#fe6310;fill-opacity:1;stroke:#662400;stroke-width:14.6578;stroke-linecap:round;stroke-linejoin:round;stroke-miterlimit:4;stroke-dasharray:none;stroke-opacity:1"
       id="path14027"
       inkscape:flatsided="false"
       sodipodi:sides="5"
       sodipodi:cx="67.090332"
       sodipodi:cy="-281.73453"
       sodipodi:r1="69.392136"
       sodipodi:r2="34.696068"
       sodipodi:arg1="-1.5707963"
       sodipodi:arg2="-0.9424778"
       inkscape:rounded="0"
       inkscape:randomized="0"
       d="m 67.090334,-351.12666 20.393835,41.32242 45.602011,6.62636 -32.99793,32.16503 7.78975,45.41774 -40.787668,-21.44335 -40.787675,21.44335 7.789754,-45.41774 -32.9979212,-32.16503 45.6020052,-6.62636 z"
       transform="matrix(0.06819057,0,0,0.06819057,85.336377,40.43)"
       inkscape:transform-center-y="-0.45185284" />
    <path
       style="fill:none;stroke:#000000;stroke-width:1;stroke-linecap:butt;stroke-linejoin:miter;stroke-miterlimit:4;stroke-dasharray:2, 1;stroke-dashoffset:0;stroke-opacity:1"
       d="M 76.39746,70.078335 95.509894,45.473764"
       id="path14546"
       sodipodi:nodetypes="cc" />
    <path
       style="fill:none;stroke:#000000;stroke-width:1;stroke-linecap:butt;stroke-linejoin:miter;stroke-miterlimit:4;stroke-dasharray:2, 1;stroke-dashoffset:0;stroke-opacity:1"
       d="M 111.90487,57.976186 95.509894,45.473764"
       id="path14548"
       sodipodi:nodetypes="cc" />
    <rect
       style="fill:#9d9a95;fill-opacity:1;stroke:#333333;stroke-width:0.999815;stroke-linecap:round;stroke-linejoin:miter;stroke-miterlimit:4;stroke-dasharray:none;stroke-opacity:0.992157"
       id="rect14488"
       width="6.0712528"
       height="6.0712528"
       x="96.621346"
       y="-37.752426"
       ry="0"
       transform="rotate(45)" />
    <path
       sodipodi:type="star"
       style="fill:#fe6310;fill-opacity:1;stroke:#662400;stroke-width:14.6578;stroke-linecap:round;stroke-linejoin:round;stroke-miterlimit:4;stroke-dasharray:none;stroke-opacity:1"
       id="path15683"
       inkscape:flatsided="false"
       sodipodi:sides="5"
       sodipodi:cx="67.090332"
       sodipodi:cy="-281.73453"
       sodipodi:r1="69.392136"
       sodipodi:r2="34.696068"
       sodipodi:arg1="-1.5707963"
       sodipodi:arg2="-0.9424778"
       inkscape:rounded="0"
       inkscape:randomized="0"
       d="m 67.090334,-351.12666 20.393835,41.32242 45.602011,6.62636 -32.99793,32.16503 7.78975,45.41774 -40.787668,-21.44335 -40.787675,21.44335 7.789754,-45.41774 -32.9979212,-32.16503 45.6020052,-6.62636 z"
       transform="matrix(0.06819057,0,0,0.06819057,74.603867,85.461794)"
       inkscape:transform-center-y="-0.45185284" />
    <path
       sodipodi:type="star"
       style="fill:#fe6310;fill-opacity:1;stroke:#662400;stroke-width:14.6578;stroke-linecap:round;stroke-linejoin:round;stroke-miterlimit:4;stroke-dasharray:none;stroke-opacity:1"
       id="path15685"
       inkscape:flatsided="false"
       sodipodi:sides="5"
       sodipodi:cx="67.090332"
       sodipodi:cy="-281.73453"
       sodipodi:r1="69.392136"
       sodipodi:r2="34.696068"
       sodipodi:arg1="-1.5707963"
       sodipodi:arg2="-0.9424778"
       inkscape:rounded="0"
       inkscape:randomized="0"
       d="m 67.090334,-351.12666 20.393835,41.32242 45.602011,6.62636 -32.99793,32.16503 7.78975,45.41774 -40.787668,-21.44335 -40.787675,21.44335 7.789754,-45.41774 -32.9979212,-32.16503 45.6020052,-6.62636 z"
       transform="matrix(0.06819057,0,0,0.06819057,46.190144,30.54315)"
       inkscape:transform-center-y="-0.45185284" />
    <path
       sodipodi:type="star"
       style="fill:#fe6310;fill-opacity:1;stroke:#662400;stroke-width:14.6578;stroke-linecap:round;stroke-linejoin:round;stroke-miterlimit:4;stroke-dasharray:none;stroke-opacity:1"
       id="path15687"
       inkscape:flatsided="false"
       sodipodi:sides="5"
       sodipodi:cx="67.090332"
       sodipodi:cy="-281.73453"
       sodipodi:r1="69.392136"
       sodipodi:r2="34.696068"
       sodipodi:arg1="-1.5707963"
       sodipodi:arg2="-0.9424778"
       inkscape:rounded="0"
       inkscape:randomized="0"
       d="m 67.090334,-351.12666 20.393835,41.32242 45.602011,6.62636 -32.99793,32.16503 7.78975,45.41774 -40.787668,-21.44335 -40.787675,21.44335 7.789754,-45.41774 -32.9979212,-32.16503 45.6020052,-6.62636 z"
       transform="matrix(0.06819057,0,0,0.06819057,72.381182,114.35077)"
       inkscape:transform-center-y="-0.45185284" />
    <path
       sodipodi:type="star"
       style="fill:#fe6310;fill-opacity:1;stroke:#662400;stroke-width:14.6578;stroke-linecap:round;stroke-linejoin:round;stroke-miterlimit:4;stroke-dasharray:none;stroke-opacity:1"
       id="path15689"
       inkscape:flatsided="false"
       sodipodi:sides="5"
       sodipodi:cx="67.090332"
       sodipodi:cy="-281.73453"
       sodipodi:r1="69.392136"
       sodipodi:r2="34.696068"
       sodipodi:arg1="-1.5707963"
       sodipodi:arg2="-0.9424778"
       inkscape:rounded="0"
       inkscape:randomized="0"
       d="m 67.090334,-351.12666 20.393835,41.32242 45.602011,6.62636 -32.99793,32.16503 7.78975,45.41774 -40.787668,-21.44335 -40.787675,21.44335 7.789754,-45.41774 -32.9979212,-32.16503 45.6020052,-6.62636 z"
       transform="matrix(0.06819057,0,0,0.06819057,22.901457,87.026387)"
       inkscape:transform-center-y="-0.45185284" />
    <path
       sodipodi:type="star"
       style="fill:#fe6310;fill-opacity:1;stroke:#662400;stroke-width:14.6578;stroke-linecap:round;stroke-linejoin:round;stroke-miterlimit:4;stroke-dasharray:none;stroke-opacity:1"
       id="path15691"
       inkscape:flatsided="false"
       sodipodi:sides="5"
       sodipodi:cx="67.090332"
       sodipodi:cy="-281.73453"
       sodipodi:r1="69.392136"
       sodipodi:r2="34.696068"
       sodipodi:arg1="-1.5707963"
       sodipodi:arg2="-0.9424778"
       inkscape:rounded="0"
       inkscape:randomized="0"
       d="m 67.090334,-351.12666 20.393835,41.32242 45.602011,6.62636 -32.99793,32.16503 7.78975,45.41774 -40.787668,-21.44335 -40.787675,21.44335 7.789754,-45.41774 -32.9979212,-32.16503 45.6020052,-6.62636 z"
       transform="matrix(0.06819057,0,0,0.06819057,26.764695,47.223591)"
       inkscape:transform-center-y="-0.45185284" />
    <path
       sodipodi:type="star"
       style="fill:#fe6310;fill-opacity:1;stroke:#662400;stroke-width:14.6578;stroke-linecap:round;stroke-linejoin:round;stroke-miterlimit:4;stroke-dasharray:none;stroke-opacity:1"
       id="path15693"
       inkscape:flatsided="false"
       sodipodi:sides="5"
       sodipodi:cx="67.090332"
       sodipodi:cy="-281.73453"
       sodipodi:r1="69.392136"
       sodipodi:r2="34.696068"
       sodipodi:arg1="-1.5707963"
       sodipodi:arg2="-0.9424778"
       inkscape:rounded="0"
       inkscape:randomized="0"
       d="m 67.090334,-351.12666 20.393835,41.32242 45.602011,6.62636 -32.99793,32.16503 7.78975,45.41774 -40.787668,-21.44335 -40.787675,21.44335 7.789754,-45.41774 -32.9979212,-32.16503 45.6020052,-6.62636 z"
       transform="matrix(0.06819057,0,0,0.06819057,11.944809,26.682218)"
       inkscape:transform-center-y="-0.45185284" />
    <path
       sodipodi:type="star"
       style="fill:#fe6310;fill-opacity:1;stroke:#662400;stroke-width:14.6578;stroke-linecap:round;stroke-linejoin:round;stroke-miterlimit:4;stroke-dasharray:none;stroke-opacity:1"
       id="path15697"
       inkscape:flatsided="false"
       sodipodi:sides="5"
       sodipodi:cx="67.090332"
       sodipodi:cy="-281.73453"
       sodipodi:r1="69.392136"
       sodipodi:r2="34.696068"
       sodipodi:arg1="-1.5707963"
       sodipodi:arg2="-0.9424778"
       inkscape:rounded="0"
       inkscape:randomized="0"
       d="m 67.090334,-351.12666 20.393835,41.32242 45.602011,6.62636 -32.99793,32.16503 7.78975,45.41774 -40.787668,-21.44335 -40.787675,21.44335 7.789754,-45.41774 -32.9979212,-32.16503 45.6020052,-6.62636 z"
       transform="matrix(0.06819057,0,0,0.06819057,4.9633397,105.49625)"
       inkscape:transform-center-y="-0.45185284" />
    <path
       sodipodi:type="star"
       style="fill:#fe6310;fill-opacity:1;stroke:#662400;stroke-width:14.6578;stroke-linecap:round;stroke-linejoin:round;stroke-miterlimit:4;stroke-dasharray:none;stroke-opacity:1"
       id="path15699"
       inkscape:flatsided="false"
       sodipodi:sides="5"
       sodipodi:cx="67.090332"
       sodipodi:cy="-281.73453"
       sodipodi:r1="69.392136"
       sodipodi:r2="34.696068"
       sodipodi:arg1="-1.5707963"
       sodipodi:arg2="-0.9424778"
       inkscape:rounded="0"
       inkscape:randomized="0"
       d="m 67.090334,-351.12666 20.393835,41.32242 45.602011,6.62636 -32.99793,32.16503 7.78975,45.41774 -40.787668,-21.44335 -40.787675,21.44335 7.789754,-45.41774 -32.9979212,-32.16503 45.6020052,-6.62636 z"
       transform="matrix(0.06819057,0,0,0.06819057,56.572412,99.027891)"
       inkscape:transform-center-y="-0.45185284" />
    <path
       sodipodi:type="star"
       style="fill:#fe6310;fill-opacity:1;stroke:#662400;stroke-width:14.6578;stroke-linecap:round;stroke-linejoin:round;stroke-miterlimit:4;stroke-dasharray:none;stroke-opacity:1"
       id="path15701"
       inkscape:flatsided="false"
       sodipodi:sides="5"
       sodipodi:cx="67.090332"
       sodipodi:cy="-281.73453"
       sodipodi:r1="69.392136"
       sodipodi:r2="34.696068"
       sodipodi:arg1="-1.5707963"
       sodipodi:arg2="-0.9424778"
       inkscape:rounded="0"
       inkscape:randomized="0"
       d="m 67.090334,-351.12666 20.393835,41.32242 45.602011,6.62636 -32.99793,32.16503 7.78975,45.41774 -40.787668,-21.44335 -40.787675,21.44335 7.789754,-45.41774 -32.9979212,-32.16503 45.6020052,-6.62636 z"
       transform="matrix(0.06819057,0,0,0.06819057,77.579991,28.941636)"
       inkscape:transform-center-y="-0.45185284" />
    <path
       sodipodi:type="star"
       style="fill:#fe6310;fill-opacity:1;stroke:#662400;stroke-width:14.6578;stroke-linecap:round;stroke-linejoin:round;stroke-miterlimit:4;stroke-dasharray:none;stroke-opacity:1"
       id="path15703"
       inkscape:flatsided="false"
       sodipodi:sides="5"
       sodipodi:cx="67.090332"
       sodipodi:cy="-281.73453"
       sodipodi:r1="69.392136"
       sodipodi:r2="34.696068"
       sodipodi:arg1="-1.5707963"
       sodipodi:arg2="-0.9424778"
       inkscape:rounded="0"
       inkscape:randomized="0"
       d="m 67.090334,-351.12666 20.393835,41.32242 45.602011,6.62636 -32.99793,32.16503 7.78975,45.41774 -40.787668,-21.44335 -40.787675,21.44335 7.789754,-45.41774 -32.9979212,-32.16503 45.6020052,-6.62636 z"
       transform="matrix(0.06819057,0,0,0.06819057,8.5538032,69.627923)"
       inkscape:transform-center-y="-0.45185284" />
    <path
       sodipodi:type="star"
       style="fill:#fe6310;fill-opacity:1;stroke:#662400;stroke-width:14.6578;stroke-linecap:round;stroke-linejoin:round;stroke-miterlimit:4;stroke-dasharray:none;stroke-opacity:1"
       id="path15705"
       inkscape:flatsided="false"
       sodipodi:sides="5"
       sodipodi:cx="67.090332"
       sodipodi:cy="-281.73453"
       sodipodi:r1="69.392136"
       sodipodi:r2="34.696068"
       sodipodi:arg1="-1.5707963"
       sodipodi:arg2="-0.9424778"
       inkscape:rounded="0"
       inkscape:randomized="0"
       d="m 67.090334,-351.12666 20.393835,41.32242 45.602011,6.62636 -32.99793,32.16503 7.78975,45.41774 -40.787668,-21.44335 -40.787675,21.44335 7.789754,-45.41774 -32.9979212,-32.16503 45.6020052,-6.62636 z"
       transform="matrix(0.06819057,0,0,0.06819057,30.38463,113.83196)"
       inkscape:transform-center-y="-0.45185284" />
    <path
       id="path15787"
       style="fill:#015ffb;fill-opacity:1;stroke:#002666;stroke-width:0.999698;stroke-linecap:round;stroke-linejoin:round;stroke-miterlimit:4;stroke-dasharray:none;stroke-opacity:1"
       d="m 114.17586,54.533402 a 4.500106,4.500106 0 0 0 -4.50014,4.500127 4.500106,4.500106 0 0 0 4.50014,4.500127 4.500106,4.500106 0 0 0 4.42447,-3.687949 3.4958713,3.4958713 0 0 1 -1.36455,0.280774 3.4958713,3.4958713 0 0 1 -3.49587,-3.495873 3.4958713,3.4958713 0 0 1 0.69684,-2.089357 4.500106,4.500106 0 0 0 -0.26089,-0.0079 z" />
    <path
       id="path15789"
       style="fill:#015ffb;fill-opacity:1;stroke:#002666;stroke-width:0.999698;stroke-linecap:round;stroke-linejoin:round;stroke-miterlimit:4;stroke-dasharray:none;stroke-opacity:1"
       d="m 125.7859,89.014945 a 4.500106,4.500106 0 0 0 -4.50014,4.500127 4.500106,4.500106 0 0 0 4.50014,4.500127 4.500106,4.500106 0 0 0 4.42447,-3.687949 3.4958713,3.4958713 0 0 1 -1.36455,0.280774 3.4958713,3.4958713 0 0 1 -3.49587,-3.495873 3.4958713,3.4958713 0 0 1 0.69684,-2.089357 4.500106,4.500106 0 0 0 -0.26089,-0.0079 z" />
    <path
       id="path15793"
       style="fill:#015ffb;fill-opacity:1;stroke:#002666;stroke-width:0.999698;stroke-linecap:round;stroke-linejoin:round;stroke-miterlimit:4;stroke-dasharray:none;stroke-opacity:1"
       d="m 154.95286,77.769611 a 4.500106,4.500106 0 0 0 -4.50014,4.500127 4.500106,4.500106 0 0 0 4.50014,4.500127 4.500106,4.500106 0 0 0 4.42447,-3.687949 3.4958713,3.4958713 0 0 1 -1.36455,0.280774 3.4958713,3.4958713 0 0 1 -3.49587,-3.495873 3.4958713,3.4958713 0 0 1 0.69684,-2.089357 4.500106,4.500106 0 0 0 -0.26089,-0.0079 z" />
    <path
       id="path15795"
       style="fill:#015ffb;fill-opacity:1;stroke:#002666;stroke-width:0.999698;stroke-linecap:round;stroke-linejoin:round;stroke-miterlimit:4;stroke-dasharray:none;stroke-opacity:1"
       d="m 186.12333,87.514817 a 4.500106,4.500106 0 0 0 -4.50014,4.500127 4.500106,4.500106 0 0 0 4.50014,4.500127 4.500106,4.500106 0 0 0 4.42447,-3.687949 3.4958713,3.4958713 0 0 1 -1.36455,0.280774 3.4958713,3.4958713 0 0 1 -3.49587,-3.495873 3.4958713,3.4958713 0 0 1 0.69684,-2.089357 4.500106,4.500106 0 0 0 -0.26089,-0.0079 z" />
    <path
       id="path15797"
       style="fill:#015ffb;fill-opacity:1;stroke:#002666;stroke-width:0.999698;stroke-linecap:round;stroke-linejoin:round;stroke-miterlimit:4;stroke-dasharray:none;stroke-opacity:1"
       d="m 148.84609,53.685864 a 4.500106,4.500106 0 0 0 -4.50014,4.500127 4.500106,4.500106 0 0 0 4.50014,4.500127 4.500106,4.500106 0 0 0 4.42447,-3.687949 3.4958713,3.4958713 0 0 1 -1.36455,0.280774 3.4958713,3.4958713 0 0 1 -3.49587,-3.495873 3.4958713,3.4958713 0 0 1 0.69684,-2.089357 4.500106,4.500106 0 0 0 -0.26089,-0.0079 z" />
    <path
       id="path15799"
       style="fill:#015ffb;fill-opacity:1;stroke:#002666;stroke-width:0.999698;stroke-linecap:round;stroke-linejoin:round;stroke-miterlimit:4;stroke-dasharray:none;stroke-opacity:1"
       d="m 132.63009,29.913834 a 4.500106,4.500106 0 0 0 -4.50014,4.500127 4.500106,4.500106 0 0 0 4.50014,4.500127 4.500106,4.500106 0 0 0 4.42447,-3.687949 3.4958713,3.4958713 0 0 1 -1.36455,0.280774 3.4958713,3.4958713 0 0 1 -3.49587,-3.495873 3.4958713,3.4958713 0 0 1 0.69684,-2.089357 4.500106,4.500106 0 0 0 -0.26089,-0.0079 z" />
    <path
       id="path15801"
       style="fill:#015ffb;fill-opacity:1;stroke:#002666;stroke-width:0.999698;stroke-linecap:round;stroke-linejoin:round;stroke-miterlimit:4;stroke-dasharray:none;stroke-opacity:1"
       d="M 118.93014,0.76821528 A 4.500106,4.500106 0 0 0 114.43,5.2683423 a 4.500106,4.500106 0 0 0 4.50014,4.500127 4.500106,4.500106 0 0 0 4.42447,-3.687949 3.4958713,3.4958713 0 0 1 -1.36455,0.280774 3.4958713,3.4958713 0 0 1 -3.49587,-3.495873 3.4958713,3.4958713 0 0 1 0.69684,-2.08935702 4.500106,4.500106 0 0 0 -0.26089,-0.0079 z" />
    <path
       id="path15805"
       style="fill:#015ffb;fill-opacity:1;stroke:#002666;stroke-width:0.999698;stroke-linecap:round;stroke-linejoin:round;stroke-miterlimit:4;stroke-dasharray:none;stroke-opacity:1"
       d="m 158.38818,12.253279 a 4.500106,4.500106 0 0 0 -4.50014,4.500127 4.500106,4.500106 0 0 0 4.50014,4.500127 4.500106,4.500106 0 0 0 4.42447,-3.687949 3.4958713,3.4958713 0 0 1 -1.36455,0.280774 3.4958713,3.4958713 0 0 1 -3.49587,-3.495873 3.4958713,3.4958713 0 0 1 0.69684,-2.089357 4.500106,4.500106 0 0 0 -0.26089,-0.0079 z" />
    <path
       id="path15807"
       style="fill:#015ffb;fill-opacity:1;stroke:#002666;stroke-width:0.999698;stroke-linecap:round;stroke-linejoin:round;stroke-miterlimit:4;stroke-dasharray:none;stroke-opacity:1"
       d="m 185.46021,50.614948 a 4.500106,4.500106 0 0 0 -4.50014,4.500127 4.500106,4.500106 0 0 0 4.50014,4.500127 4.500106,4.500106 0 0 0 4.42447,-3.687949 3.4958713,3.4958713 0 0 1 -1.36455,0.280774 3.4958713,3.4958713 0 0 1 -3.49587,-3.495873 3.4958713,3.4958713 0 0 1 0.69684,-2.089357 4.500106,4.500106 0 0 0 -0.26089,-0.0079 z" />
    <path
       id="path15809"
       style="fill:#015ffb;fill-opacity:1;stroke:#002666;stroke-width:0.999698;stroke-linecap:round;stroke-linejoin:round;stroke-miterlimit:4;stroke-dasharray:none;stroke-opacity:1"
       d="m 184.27824,2.9149547 a 4.500106,4.500106 0 0 0 -4.50014,4.500127 4.500106,4.500106 0 0 0 4.50014,4.5001273 4.500106,4.500106 0 0 0 4.42447,-3.6879493 3.4958713,3.4958713 0 0 1 -1.36455,0.280774 3.4958713,3.4958713 0 0 1 -3.49587,-3.495873 3.4958713,3.4958713 0 0 1 0.69684,-2.089357 4.500106,4.500106 0 0 0 -0.26089,-0.0079 z" />
    <path
       id="path15811"
       style="fill:#015ffb;fill-opacity:1;stroke:#002666;stroke-width:0.999698;stroke-linecap:round;stroke-linejoin:round;stroke-miterlimit:4;stroke-dasharray:none;stroke-opacity:1"
       d="m 193.74925,28.063011 a 4.500106,4.500106 0 0 0 -4.50014,4.500127 4.500106,4.500106 0 0 0 4.50014,4.500127 4.500106,4.500106 0 0 0 4.42447,-3.687949 3.4958713,3.4958713 0 0 1 -1.36455,0.280774 3.4958713,3.4958713 0 0 1 -3.49587,-3.495873 3.4958713,3.4958713 0 0 1 0.69684,-2.089357 4.500106,4.500106 0 0 0 -0.26089,-0.0079 z" />
    <path
       id="path15990"
       style="fill:#015ffb;fill-opacity:1;stroke:#002666;stroke-width:0.999698;stroke-linecap:round;stroke-linejoin:round;stroke-miterlimit:4;stroke-dasharray:none;stroke-opacity:1"
       d="m 105.25267,76.713058 a 4.500106,4.500106 0 0 0 -4.50014,4.500127 4.500106,4.500106 0 0 0 4.50014,4.500127 4.500106,4.500106 0 0 0 4.42447,-3.687949 3.4958713,3.4958713 0 0 1 -1.36455,0.280774 3.4958713,3.4958713 0 0 1 -3.49587,-3.495873 3.4958713,3.4958713 0 0 1 0.69684,-2.089357 4.500106,4.500106 0 0 0 -0.26089,-0.0079 z" />
    <path
       sodipodi:type="star"
       style="fill:#fe6310;fill-opacity:1;stroke:#662400;stroke-width:14.6578;stroke-linecap:round;stroke-linejoin:round;stroke-miterlimit:4;stroke-dasharray:none;stroke-opacity:1"
       id="path15992"
       inkscape:flatsided="false"
       sodipodi:sides="5"
       sodipodi:cx="67.090332"
       sodipodi:cy="-281.73453"
       sodipodi:r1="69.392136"
       sodipodi:r2="34.696068"
       sodipodi:arg1="-1.5707963"
       sodipodi:arg2="-0.9424778"
       inkscape:rounded="0"
       inkscape:randomized="0"
       d="m 67.090334,-351.12666 20.393835,41.32242 45.602011,6.62636 -32.99793,32.16503 7.78975,45.41774 -40.787668,-21.44335 -40.787675,21.44335 7.789754,-45.41774 -32.9979212,-32.16503 45.6020052,-6.62636 z"
       transform="matrix(0.06819057,0,0,0.06819057,57.867785,51.456572)"
       inkscape:transform-center-y="-0.45185284" />
    <path
       sodipodi:type="star"
       style="fill:#fe6310;fill-opacity:1;stroke:#662400;stroke-width:14.6578;stroke-linecap:round;stroke-linejoin:round;stroke-miterlimit:4;stroke-dasharray:none;stroke-opacity:1"
       id="path16035"
       inkscape:flatsided="false"
       sodipodi:sides="5"
       sodipodi:cx="67.090332"
       sodipodi:cy="-281.73453"
       sodipodi:r1="69.392136"
       sodipodi:r2="34.696068"
       sodipodi:arg1="-1.5707963"
       sodipodi:arg2="-0.9424778"
       inkscape:rounded="0"
       inkscape:randomized="0"
       d="m 67.090334,-351.12666 20.393835,41.32242 45.602011,6.62636 -32.99793,32.16503 7.78975,45.41774 -40.787668,-21.44335 -40.787675,21.44335 7.789754,-45.41774 -32.9979212,-32.16503 45.6020052,-6.62636 z"
       transform="matrix(0.06819057,0,0,0.06819057,45.242249,72.714147)"
       inkscape:transform-center-y="-0.45185284" />
    <circle
       style="fill:none;fill-opacity:1;stroke:#333333;stroke-width:1;stroke-linecap:butt;stroke-linejoin:miter;stroke-miterlimit:4;stroke-dasharray:2, 1;stroke-dashoffset:0;stroke-opacity:0.992157"
       id="path16555"
       cx="95.509888"
       cy="45.473763"
       r="30.537334" />
  </g>
</svg>
