<?xml version="1.0" encoding="UTF-8" standalone="no"?>
<!-- Created with Inkscape (http://www.inkscape.org/) -->

<svg
   width="200mm"
   height="100mm"
   viewBox="0 0 200 100"
   version="1.1"
   id="svg5"
   inkscape:version="1.1.2 (0a00cf5339, 2022-02-04)"
   sodipodi:docname="stability-2.svg"
   xmlns:inkscape="http://www.inkscape.org/namespaces/inkscape"
   xmlns:sodipodi="http://sodipodi.sourceforge.net/DTD/sodipodi-0.dtd"
   xmlns="http://www.w3.org/2000/svg"
   xmlns:svg="http://www.w3.org/2000/svg">
  <sodipodi:namedview
     id="namedview7"
     pagecolor="#ffffff"
     bordercolor="#666666"
     borderopacity="1.0"
     inkscape:pageshadow="2"
     inkscape:pageopacity="0.0"
     inkscape:pagecheckerboard="0"
     inkscape:document-units="mm"
     showgrid="false"
     width="200mm"
     inkscape:zoom="2.4212335"
     inkscape:cx="338.05084"
     inkscape:cy="134.43561"
     inkscape:window-width="1850"
     inkscape:window-height="1016"
     inkscape:window-x="0"
     inkscape:window-y="0"
     inkscape:window-maximized="1"
     inkscape:current-layer="layer1" />
  <defs
     id="defs2">
    <marker
       style="overflow:visible;"
       id="Arrow1Lend"
       refX="0.0"
       refY="0.0"
       orient="auto"
       inkscape:stockid="Arrow1Lend"
       inkscape:isstock="true">
      <path
         transform="scale(0.8) rotate(180) translate(12.5,0)"
         style="fill-rule:evenodd;fill:context-stroke;stroke:context-stroke;stroke-width:1.0pt;"
         d="M 0.0,0.0 L 5.0,-5.0 L -12.5,0.0 L 5.0,5.0 L 0.0,0.0 z "
         id="path942" />
    </marker>
  </defs>
  <g
     inkscape:label="Livello 1"
     inkscape:groupmode="layer"
     id="layer1"
     style="display:inline">
    <path
       id="rect57709"
       style="fill:#9ac0fe;fill-opacity:1;stroke:none;stroke-width:0.750837"
       d="m 0,0 106.93197,0.09508596 c 0,0 7.41285,20.82517704 5.96191,33.11890904 -1.45094,12.293729 -15.536819,25.323662 -16.307013,37.206512 -0.768601,11.858323 8.579443,29.50619 8.618083,29.579072 h 94.79524 V 0 Z m 0,0 v 99.999579 h 0.04547526 z" />
    <path
       style="fill:#febd9a;fill-opacity:1;stroke:none;stroke-width:0.264583px;stroke-linecap:butt;stroke-linejoin:miter;stroke-opacity:1"
       d="m 0,0 106.93177,0.09532781 c 0,0 7.4128,20.82491119 5.96186,33.11863919 -1.45094,12.293728 -15.536789,25.323849 -16.306983,37.206703 -0.770194,11.882854 8.625263,29.59199 8.625263,29.59199 H 0.04565095 Z"
       id="path55801"
       sodipodi:nodetypes="cczzccc" />
    <path
       style="fill:none;stroke:#000000;stroke-width:0.5;stroke-linecap:butt;stroke-linejoin:miter;stroke-miterlimit:4;stroke-dasharray:1, 0.5;stroke-dashoffset:0;stroke-opacity:1"
       d="m 105.80917,31.575957 12.88779,-2.777496"
       id="path67147" />
    <rect
       style="fill:#9d9a95;fill-opacity:1;stroke:#333333;stroke-width:0.999815;stroke-linecap:round;stroke-linejoin:miter;stroke-miterlimit:4;stroke-dasharray:none;stroke-opacity:0.992157"
       id="rect14141"
       width="6.0712528"
       height="6.0712528"
       x="93.801819"
       y="-54.212177"
       ry="0"
       transform="rotate(45)" />
    <path
       style="fill:none;stroke:#000000;stroke-width:0.507143;stroke-linecap:butt;stroke-linejoin:miter;stroke-miterlimit:4;stroke-dasharray:none;stroke-opacity:1;marker-end:url(#Arrow1Lend)"
       d="M 7.575396,99.985911 V 0.98454854"
       id="path857" />
    <path
       style="fill:none;stroke:#000000;stroke-width:0.507143;stroke-linecap:butt;stroke-linejoin:miter;stroke-miterlimit:4;stroke-dasharray:none;stroke-opacity:1;marker-end:url(#Arrow1Lend)"
       d="M 0,92.575396 H 198.24813"
       id="path1207"
       sodipodi:nodetypes="cc" />
    <path
       sodipodi:type="star"
       style="fill:#fe6310;fill-opacity:1;stroke:#662400;stroke-width:14.6578;stroke-linecap:round;stroke-linejoin:round;stroke-miterlimit:4;stroke-dasharray:none;stroke-opacity:1"
       id="path14027"
       inkscape:flatsided="false"
       sodipodi:sides="5"
       sodipodi:cx="67.090332"
       sodipodi:cy="-281.73453"
       sodipodi:r1="69.392136"
       sodipodi:r2="34.696068"
       sodipodi:arg1="-1.5707963"
       sodipodi:arg2="-0.9424778"
       inkscape:rounded="0"
       inkscape:randomized="0"
       d="m 67.090334,-351.12666 20.393835,41.32242 45.602011,6.62636 -32.99793,32.16503 7.78975,45.41774 -40.787668,-21.44335 -40.787675,21.44335 7.789754,-45.41774 -32.9979212,-32.16503 45.6020052,-6.62636 z"
       transform="matrix(0.06819057,0,0,0.06819057,85.336377,40.43)"
       inkscape:transform-center-y="-0.45185284" />
    <path
       sodipodi:type="star"
       style="fill:#fe6310;fill-opacity:1;stroke:#662400;stroke-width:14.6578;stroke-linecap:round;stroke-linejoin:round;stroke-miterlimit:4;stroke-dasharray:none;stroke-opacity:1"
       id="path15683"
       inkscape:flatsided="false"
       sodipodi:sides="5"
       sodipodi:cx="67.090332"
       sodipodi:cy="-281.73453"
       sodipodi:r1="69.392136"
       sodipodi:r2="34.696068"
       sodipodi:arg1="-1.5707963"
       sodipodi:arg2="-0.9424778"
       inkscape:rounded="0"
       inkscape:randomized="0"
       d="m 67.090334,-351.12666 20.393835,41.32242 45.602011,6.62636 -32.99793,32.16503 7.78975,45.41774 -40.787668,-21.44335 -40.787675,21.44335 7.789754,-45.41774 -32.9979212,-32.16503 45.6020052,-6.62636 z"
       transform="matrix(0.06819057,0,0,0.06819057,74.603867,85.461794)"
       inkscape:transform-center-y="-0.45185284" />
    <path
       sodipodi:type="star"
       style="fill:#fe6310;fill-opacity:1;stroke:#662400;stroke-width:14.6578;stroke-linecap:round;stroke-linejoin:round;stroke-miterlimit:4;stroke-dasharray:none;stroke-opacity:1"
       id="path15685"
       inkscape:flatsided="false"
       sodipodi:sides="5"
       sodipodi:cx="67.090332"
       sodipodi:cy="-281.73453"
       sodipodi:r1="69.392136"
       sodipodi:r2="34.696068"
       sodipodi:arg1="-1.5707963"
       sodipodi:arg2="-0.9424778"
       inkscape:rounded="0"
       inkscape:randomized="0"
       d="m 67.090334,-351.12666 20.393835,41.32242 45.602011,6.62636 -32.99793,32.16503 7.78975,45.41774 -40.787668,-21.44335 -40.787675,21.44335 7.789754,-45.41774 -32.9979212,-32.16503 45.6020052,-6.62636 z"
       transform="matrix(0.06819057,0,0,0.06819057,46.190144,30.54315)"
       inkscape:transform-center-y="-0.45185284" />
    <path
       sodipodi:type="star"
       style="fill:#fe6310;fill-opacity:1;stroke:#662400;stroke-width:14.6578;stroke-linecap:round;stroke-linejoin:round;stroke-miterlimit:4;stroke-dasharray:none;stroke-opacity:1"
       id="path15687"
       inkscape:flatsided="false"
       sodipodi:sides="5"
       sodipodi:cx="67.090332"
       sodipodi:cy="-281.73453"
       sodipodi:r1="69.392136"
       sodipodi:r2="34.696068"
       sodipodi:arg1="-1.5707963"
       sodipodi:arg2="-0.9424778"
       inkscape:rounded="0"
       inkscape:randomized="0"
       d="m 67.090334,-351.12666 20.393835,41.32242 45.602011,6.62636 -32.99793,32.16503 7.78975,45.41774 -40.787668,-21.44335 -40.787675,21.44335 7.789754,-45.41774 -32.9979212,-32.16503 45.6020052,-6.62636 z"
       transform="matrix(0.06819057,0,0,0.06819057,72.381182,114.35077)"
       inkscape:transform-center-y="-0.45185284" />
    <path
       sodipodi:type="star"
       style="fill:#fe6310;fill-opacity:1;stroke:#662400;stroke-width:14.6578;stroke-linecap:round;stroke-linejoin:round;stroke-miterlimit:4;stroke-dasharray:none;stroke-opacity:1"
       id="path15689"
       inkscape:flatsided="false"
       sodipodi:sides="5"
       sodipodi:cx="67.090332"
       sodipodi:cy="-281.73453"
       sodipodi:r1="69.392136"
       sodipodi:r2="34.696068"
       sodipodi:arg1="-1.5707963"
       sodipodi:arg2="-0.9424778"
       inkscape:rounded="0"
       inkscape:randomized="0"
       d="m 67.090334,-351.12666 20.393835,41.32242 45.602011,6.62636 -32.99793,32.16503 7.78975,45.41774 -40.787668,-21.44335 -40.787675,21.44335 7.789754,-45.41774 -32.9979212,-32.16503 45.6020052,-6.62636 z"
       transform="matrix(0.06819057,0,0,0.06819057,22.901457,87.026387)"
       inkscape:transform-center-y="-0.45185284" />
    <path
       sodipodi:type="star"
       style="fill:#fe6310;fill-opacity:1;stroke:#662400;stroke-width:14.6578;stroke-linecap:round;stroke-linejoin:round;stroke-miterlimit:4;stroke-dasharray:none;stroke-opacity:1"
       id="path15691"
       inkscape:flatsided="false"
       sodipodi:sides="5"
       sodipodi:cx="67.090332"
       sodipodi:cy="-281.73453"
       sodipodi:r1="69.392136"
       sodipodi:r2="34.696068"
       sodipodi:arg1="-1.5707963"
       sodipodi:arg2="-0.9424778"
       inkscape:rounded="0"
       inkscape:randomized="0"
       d="m 67.090334,-351.12666 20.393835,41.32242 45.602011,6.62636 -32.99793,32.16503 7.78975,45.41774 -40.787668,-21.44335 -40.787675,21.44335 7.789754,-45.41774 -32.9979212,-32.16503 45.6020052,-6.62636 z"
       transform="matrix(0.06819057,0,0,0.06819057,26.764695,47.223591)"
       inkscape:transform-center-y="-0.45185284" />
    <path
       sodipodi:type="star"
       style="fill:#fe6310;fill-opacity:1;stroke:#662400;stroke-width:14.6578;stroke-linecap:round;stroke-linejoin:round;stroke-miterlimit:4;stroke-dasharray:none;stroke-opacity:1"
       id="path15693"
       inkscape:flatsided="false"
       sodipodi:sides="5"
       sodipodi:cx="67.090332"
       sodipodi:cy="-281.73453"
       sodipodi:r1="69.392136"
       sodipodi:r2="34.696068"
       sodipodi:arg1="-1.5707963"
       sodipodi:arg2="-0.9424778"
       inkscape:rounded="0"
       inkscape:randomized="0"
       d="m 67.090334,-351.12666 20.393835,41.32242 45.602011,6.62636 -32.99793,32.16503 7.78975,45.41774 -40.787668,-21.44335 -40.787675,21.44335 7.789754,-45.41774 -32.9979212,-32.16503 45.6020052,-6.62636 z"
       transform="matrix(0.06819057,0,0,0.06819057,11.944809,26.682218)"
       inkscape:transform-center-y="-0.45185284" />
    <path
       sodipodi:type="star"
       style="fill:#fe6310;fill-opacity:1;stroke:#662400;stroke-width:14.6578;stroke-linecap:round;stroke-linejoin:round;stroke-miterlimit:4;stroke-dasharray:none;stroke-opacity:1"
       id="path15697"
       inkscape:flatsided="false"
       sodipodi:sides="5"
       sodipodi:cx="67.090332"
       sodipodi:cy="-281.73453"
       sodipodi:r1="69.392136"
       sodipodi:r2="34.696068"
       sodipodi:arg1="-1.5707963"
       sodipodi:arg2="-0.9424778"
       inkscape:rounded="0"
       inkscape:randomized="0"
       d="m 67.090334,-351.12666 20.393835,41.32242 45.602011,6.62636 -32.99793,32.16503 7.78975,45.41774 -40.787668,-21.44335 -40.787675,21.44335 7.789754,-45.41774 -32.9979212,-32.16503 45.6020052,-6.62636 z"
       transform="matrix(0.06819057,0,0,0.06819057,4.9633397,105.49625)"
       inkscape:transform-center-y="-0.45185284" />
    <path
       sodipodi:type="star"
       style="fill:#fe6310;fill-opacity:1;stroke:#662400;stroke-width:14.6578;stroke-linecap:round;stroke-linejoin:round;stroke-miterlimit:4;stroke-dasharray:none;stroke-opacity:1"
       id="path15699"
       inkscape:flatsided="false"
       sodipodi:sides="5"
       sodipodi:cx="67.090332"
       sodipodi:cy="-281.73453"
       sodipodi:r1="69.392136"
       sodipodi:r2="34.696068"
       sodipodi:arg1="-1.5707963"
       sodipodi:arg2="-0.9424778"
       inkscape:rounded="0"
       inkscape:randomized="0"
       d="m 67.090334,-351.12666 20.393835,41.32242 45.602011,6.62636 -32.99793,32.16503 7.78975,45.41774 -40.787668,-21.44335 -40.787675,21.44335 7.789754,-45.41774 -32.9979212,-32.16503 45.6020052,-6.62636 z"
       transform="matrix(0.06819057,0,0,0.06819057,56.572412,99.027891)"
       inkscape:transform-center-y="-0.45185284" />
    <path
       sodipodi:type="star"
       style="fill:#fe6310;fill-opacity:1;stroke:#662400;stroke-width:14.6578;stroke-linecap:round;stroke-linejoin:round;stroke-miterlimit:4;stroke-dasharray:none;stroke-opacity:1"
       id="path15701"
       inkscape:flatsided="false"
       sodipodi:sides="5"
       sodipodi:cx="67.090332"
       sodipodi:cy="-281.73453"
       sodipodi:r1="69.392136"
       sodipodi:r2="34.696068"
       sodipodi:arg1="-1.5707963"
       sodipodi:arg2="-0.9424778"
       inkscape:rounded="0"
       inkscape:randomized="0"
       d="m 67.090334,-351.12666 20.393835,41.32242 45.602011,6.62636 -32.99793,32.16503 7.78975,45.41774 -40.787668,-21.44335 -40.787675,21.44335 7.789754,-45.41774 -32.9979212,-32.16503 45.6020052,-6.62636 z"
       transform="matrix(0.06819057,0,0,0.06819057,77.579991,28.941636)"
       inkscape:transform-center-y="-0.45185284" />
    <path
       sodipodi:type="star"
       style="fill:#fe6310;fill-opacity:1;stroke:#662400;stroke-width:14.6578;stroke-linecap:round;stroke-linejoin:round;stroke-miterlimit:4;stroke-dasharray:none;stroke-opacity:1"
       id="path15703"
       inkscape:flatsided="false"
       sodipodi:sides="5"
       sodipodi:cx="67.090332"
       sodipodi:cy="-281.73453"
       sodipodi:r1="69.392136"
       sodipodi:r2="34.696068"
       sodipodi:arg1="-1.5707963"
       sodipodi:arg2="-0.9424778"
       inkscape:rounded="0"
       inkscape:randomized="0"
       d="m 67.090334,-351.12666 20.393835,41.32242 45.602011,6.62636 -32.99793,32.16503 7.78975,45.41774 -40.787668,-21.44335 -40.787675,21.44335 7.789754,-45.41774 -32.9979212,-32.16503 45.6020052,-6.62636 z"
       transform="matrix(0.06819057,0,0,0.06819057,8.5538032,69.627923)"
       inkscape:transform-center-y="-0.45185284" />
    <path
       sodipodi:type="star"
       style="fill:#fe6310;fill-opacity:1;stroke:#662400;stroke-width:14.6578;stroke-linecap:round;stroke-linejoin:round;stroke-miterlimit:4;stroke-dasharray:none;stroke-opacity:1"
       id="path15705"
       inkscape:flatsided="false"
       sodipodi:sides="5"
       sodipodi:cx="67.090332"
       sodipodi:cy="-281.73453"
       sodipodi:r1="69.392136"
       sodipodi:r2="34.696068"
       sodipodi:arg1="-1.5707963"
       sodipodi:arg2="-0.9424778"
       inkscape:rounded="0"
       inkscape:randomized="0"
       d="m 67.090334,-351.12666 20.393835,41.32242 45.602011,6.62636 -32.99793,32.16503 7.78975,45.41774 -40.787668,-21.44335 -40.787675,21.44335 7.789754,-45.41774 -32.9979212,-32.16503 45.6020052,-6.62636 z"
       transform="matrix(0.06819057,0,0,0.06819057,30.38463,113.83196)"
       inkscape:transform-center-y="-0.45185284" />
    <path
       id="path15787"
       style="fill:#015ffb;fill-opacity:1;stroke:#002666;stroke-width:0.999698;stroke-linecap:round;stroke-linejoin:round;stroke-miterlimit:4;stroke-dasharray:none;stroke-opacity:1"
       d="m 114.17586,54.533402 a 4.500106,4.500106 0 0 0 -4.50014,4.500127 4.500106,4.500106 0 0 0 4.50014,4.500127 4.500106,4.500106 0 0 0 4.42447,-3.687949 3.4958713,3.4958713 0 0 1 -1.36455,0.280774 3.4958713,3.4958713 0 0 1 -3.49587,-3.495873 3.4958713,3.4958713 0 0 1 0.69684,-2.089357 4.500106,4.500106 0 0 0 -0.26089,-0.0079 z" />
    <path
       id="path15789"
       style="fill:#015ffb;fill-opacity:1;stroke:#002666;stroke-width:0.999698;stroke-linecap:round;stroke-linejoin:round;stroke-miterlimit:4;stroke-dasharray:none;stroke-opacity:1"
       d="m 125.7859,89.014945 a 4.500106,4.500106 0 0 0 -4.50014,4.500127 4.500106,4.500106 0 0 0 4.50014,4.500127 4.500106,4.500106 0 0 0 4.42447,-3.687949 3.4958713,3.4958713 0 0 1 -1.36455,0.280774 3.4958713,3.4958713 0 0 1 -3.49587,-3.495873 3.4958713,3.4958713 0 0 1 0.69684,-2.089357 4.500106,4.500106 0 0 0 -0.26089,-0.0079 z" />
    <path
       id="path15793"
       style="fill:#015ffb;fill-opacity:1;stroke:#002666;stroke-width:0.999698;stroke-linecap:round;stroke-linejoin:round;stroke-miterlimit:4;stroke-dasharray:none;stroke-opacity:1"
       d="m 154.95286,77.769611 a 4.500106,4.500106 0 0 0 -4.50014,4.500127 4.500106,4.500106 0 0 0 4.50014,4.500127 4.500106,4.500106 0 0 0 4.42447,-3.687949 3.4958713,3.4958713 0 0 1 -1.36455,0.280774 3.4958713,3.4958713 0 0 1 -3.49587,-3.495873 3.4958713,3.4958713 0 0 1 0.69684,-2.089357 4.500106,4.500106 0 0 0 -0.26089,-0.0079 z" />
    <path
       id="path15795"
       style="fill:#015ffb;fill-opacity:1;stroke:#002666;stroke-width:0.999698;stroke-linecap:round;stroke-linejoin:round;stroke-miterlimit:4;stroke-dasharray:none;stroke-opacity:1"
       d="m 186.12333,87.514817 a 4.500106,4.500106 0 0 0 -4.50014,4.500127 4.500106,4.500106 0 0 0 4.50014,4.500127 4.500106,4.500106 0 0 0 4.42447,-3.687949 3.4958713,3.4958713 0 0 1 -1.36455,0.280774 3.4958713,3.4958713 0 0 1 -3.49587,-3.495873 3.4958713,3.4958713 0 0 1 0.69684,-2.089357 4.500106,4.500106 0 0 0 -0.26089,-0.0079 z" />
    <path
       id="path15797"
       style="fill:#015ffb;fill-opacity:1;stroke:#002666;stroke-width:0.999698;stroke-linecap:round;stroke-linejoin:round;stroke-miterlimit:4;stroke-dasharray:none;stroke-opacity:1"
       d="m 148.84609,53.685864 a 4.500106,4.500106 0 0 0 -4.50014,4.500127 4.500106,4.500106 0 0 0 4.50014,4.500127 4.500106,4.500106 0 0 0 4.42447,-3.687949 3.4958713,3.4958713 0 0 1 -1.36455,0.280774 3.4958713,3.4958713 0 0 1 -3.49587,-3.495873 3.4958713,3.4958713 0 0 1 0.69684,-2.089357 4.500106,4.500106 0 0 0 -0.26089,-0.0079 z" />
    <path
       id="path15799"
       style="fill:#015ffb;fill-opacity:1;stroke:#002666;stroke-width:0.999698;stroke-linecap:round;stroke-linejoin:round;stroke-miterlimit:4;stroke-dasharray:none;stroke-opacity:1"
       d="m 132.63009,29.913834 a 4.500106,4.500106 0 0 0 -4.50014,4.500127 4.500106,4.500106 0 0 0 4.50014,4.500127 4.500106,4.500106 0 0 0 4.42447,-3.687949 3.4958713,3.4958713 0 0 1 -1.36455,0.280774 3.4958713,3.4958713 0 0 1 -3.49587,-3.495873 3.4958713,3.4958713 0 0 1 0.69684,-2.089357 4.500106,4.500106 0 0 0 -0.26089,-0.0079 z" />
    <path
       id="path15801"
       style="fill:#015ffb;fill-opacity:1;stroke:#002666;stroke-width:0.999698;stroke-linecap:round;stroke-linejoin:round;stroke-miterlimit:4;stroke-dasharray:none;stroke-opacity:1"
       d="M 118.93014,0.76821528 A 4.500106,4.500106 0 0 0 114.43,5.2683423 a 4.500106,4.500106 0 0 0 4.50014,4.500127 4.500106,4.500106 0 0 0 4.42447,-3.687949 3.4958713,3.4958713 0 0 1 -1.36455,0.280774 3.4958713,3.4958713 0 0 1 -3.49587,-3.495873 3.4958713,3.4958713 0 0 1 0.69684,-2.08935702 4.500106,4.500106 0 0 0 -0.26089,-0.0079 z" />
    <path
       id="path15805"
       style="fill:#015ffb;fill-opacity:1;stroke:#002666;stroke-width:0.999698;stroke-linecap:round;stroke-linejoin:round;stroke-miterlimit:4;stroke-dasharray:none;stroke-opacity:1"
       d="m 158.38818,12.253279 a 4.500106,4.500106 0 0 0 -4.50014,4.500127 4.500106,4.500106 0 0 0 4.50014,4.500127 4.500106,4.500106 0 0 0 4.42447,-3.687949 3.4958713,3.4958713 0 0 1 -1.36455,0.280774 3.4958713,3.4958713 0 0 1 -3.49587,-3.495873 3.4958713,3.4958713 0 0 1 0.69684,-2.089357 4.500106,4.500106 0 0 0 -0.26089,-0.0079 z" />
    <path
       id="path15807"
       style="fill:#015ffb;fill-opacity:1;stroke:#002666;stroke-width:0.999698;stroke-linecap:round;stroke-linejoin:round;stroke-miterlimit:4;stroke-dasharray:none;stroke-opacity:1"
       d="m 185.46021,50.614948 a 4.500106,4.500106 0 0 0 -4.50014,4.500127 4.500106,4.500106 0 0 0 4.50014,4.500127 4.500106,4.500106 0 0 0 4.42447,-3.687949 3.4958713,3.4958713 0 0 1 -1.36455,0.280774 3.4958713,3.4958713 0 0 1 -3.49587,-3.495873 3.4958713,3.4958713 0 0 1 0.69684,-2.089357 4.500106,4.500106 0 0 0 -0.26089,-0.0079 z" />
    <path
       id="path15809"
       style="fill:#015ffb;fill-opacity:1;stroke:#002666;stroke-width:0.999698;stroke-linecap:round;stroke-linejoin:round;stroke-miterlimit:4;stroke-dasharray:none;stroke-opacity:1"
       d="m 184.27824,2.9149547 a 4.500106,4.500106 0 0 0 -4.50014,4.500127 4.500106,4.500106 0 0 0 4.50014,4.5001273 4.500106,4.500106 0 0 0 4.42447,-3.6879493 3.4958713,3.4958713 0 0 1 -1.36455,0.280774 3.4958713,3.4958713 0 0 1 -3.49587,-3.495873 3.4958713,3.4958713 0 0 1 0.69684,-2.089357 4.500106,4.500106 0 0 0 -0.26089,-0.0079 z" />
    <path
       id="path15811"
       style="fill:#015ffb;fill-opacity:1;stroke:#002666;stroke-width:0.999698;stroke-linecap:round;stroke-linejoin:round;stroke-miterlimit:4;stroke-dasharray:none;stroke-opacity:1"
       d="m 193.74925,28.063011 a 4.500106,4.500106 0 0 0 -4.50014,4.500127 4.500106,4.500106 0 0 0 4.50014,4.500127 4.500106,4.500106 0 0 0 4.42447,-3.687949 3.4958713,3.4958713 0 0 1 -1.36455,0.280774 3.4958713,3.4958713 0 0 1 -3.49587,-3.495873 3.4958713,3.4958713 0 0 1 0.69684,-2.089357 4.500106,4.500106 0 0 0 -0.26089,-0.0079 z" />
    <path
       id="path15990"
       style="fill:#015ffb;fill-opacity:1;stroke:#333333;stroke-width:0.999698;stroke-linecap:round;stroke-linejoin:round;stroke-miterlimit:4;stroke-dasharray:none;stroke-opacity:0.99215698"
       d="m 105.25267,76.713058 a 4.500106,4.500106 0 0 0 -4.50014,4.500127 4.500106,4.500106 0 0 0 4.50014,4.500127 4.500106,4.500106 0 0 0 4.42447,-3.687949 3.4958713,3.4958713 0 0 1 -1.36455,0.280774 3.4958713,3.4958713 0 0 1 -3.49587,-3.495873 3.4958713,3.4958713 0 0 1 0.69684,-2.089357 4.500106,4.500106 0 0 0 -0.26089,-0.0079 z" />
    <path
       sodipodi:type="star"
       style="fill:#fe6310;fill-opacity:1;stroke:#662400;stroke-width:14.6578;stroke-linecap:round;stroke-linejoin:round;stroke-miterlimit:4;stroke-dasharray:none;stroke-opacity:1"
       id="path15992"
       inkscape:flatsided="false"
       sodipodi:sides="5"
       sodipodi:cx="67.090332"
       sodipodi:cy="-281.73453"
       sodipodi:r1="69.392136"
       sodipodi:r2="34.696068"
       sodipodi:arg1="-1.5707963"
       sodipodi:arg2="-0.9424778"
       inkscape:rounded="0"
       inkscape:randomized="0"
       d="m 67.090334,-351.12666 20.393835,41.32242 45.602011,6.62636 -32.99793,32.16503 7.78975,45.41774 -40.787668,-21.44335 -40.787675,21.44335 7.789754,-45.41774 -32.9979212,-32.16503 45.6020052,-6.62636 z"
       transform="matrix(0.06819057,0,0,0.06819057,57.867785,51.456572)"
       inkscape:transform-center-y="-0.45185284" />
    <path
       sodipodi:type="star"
       style="fill:#fe6310;fill-opacity:1;stroke:#662400;stroke-width:14.6578;stroke-linecap:round;stroke-linejoin:round;stroke-miterlimit:4;stroke-dasharray:none;stroke-opacity:1"
       id="path16035"
       inkscape:flatsided="false"
       sodipodi:sides="5"
       sodipodi:cx="67.090332"
       sodipodi:cy="-281.73453"
       sodipodi:r1="69.392136"
       sodipodi:r2="34.696068"
       sodipodi:arg1="-1.5707963"
       sodipodi:arg2="-0.9424778"
       inkscape:rounded="0"
       inkscape:randomized="0"
       d="m 67.090334,-351.12666 20.393835,41.32242 45.602011,6.62636 -32.99793,32.16503 7.78975,45.41774 -40.787668,-21.44335 -40.787675,21.44335 7.789754,-45.41774 -32.9979212,-32.16503 45.6020052,-6.62636 z"
       transform="matrix(0.06819057,0,0,0.06819057,45.242249,72.714147)"
       inkscape:transform-center-y="-0.45185284" />
    <text
       xml:space="preserve"
       style="font-style:normal;font-variant:normal;font-weight:normal;font-stretch:normal;font-size:6.35px;line-height:1.25;font-family:'Liberation Sans';-inkscape-font-specification:'Liberation Sans';stroke-width:0.264583"
       x="66.379234"
       y="45.715515"
       id="text42832"><tspan
         sodipodi:role="line"
         id="tspan42830"
         style="font-style:normal;font-variant:normal;font-weight:normal;font-stretch:normal;font-size:6.35px;font-family:'Liberation Sans';-inkscape-font-specification:'Liberation Sans';stroke-width:0.264583"
         x="66.379234"
         y="45.715515">stable</tspan></text>
    <g
       aria-label=" unstable   unstable   unstable   uns"
       transform="translate(-1.5875,-0.52916667)"
       id="text42975"
       style="font-size:6.35px;line-height:1.25;font-family:'Liberation Sans';-inkscape-font-specification:'Liberation Sans';fill:#990000;stroke-width:0.264583">
      <path
         d="m 111.22211,1.6869577 -1.75684,0.6750064 q -0.82488,0.3169304 -0.61137,0.8726372 0.11343,0.2952192 0.43418,0.377919 0.32476,0.084482 0.72128,-0.067867 l 1.6787,-0.6449813 0.31248,0.8132999 -2.43122,0.9341109 q -0.39941,0.1534611 -0.69152,0.2922674 l -0.29803,-0.775674 q 0.40344,-0.194865 0.60893,-0.2738196 l -0.006,-0.014471 q -0.41827,-0.025301 -0.6771,-0.2148312 -0.25772,-0.1866363 -0.39005,-0.5310587 -0.19127,-0.4978206 0.0103,-0.8808606 0.20449,-0.3841521 0.79492,-0.6110076 l 1.98839,-0.76396923 z"
         style="font-weight:bold;-inkscape-font-specification:'Liberation Sans Bold'"
         id="path68220" />
      <path
         d="m 109.87004,7.8084354 1.78186,-0.6058953 q 0.83662,-0.2844813 0.64397,-0.8510364 -0.10181,-0.2994229 -0.42302,-0.3965207 -0.31728,-0.095161 -0.71945,0.04159 l -1.7026,0.5789444 -0.28049,-0.8248807 2.46584,-0.8384713 q 0.25539,-0.086842 0.41385,-0.1505481 0.16239,-0.061769 0.28856,-0.1144956 l 0.26751,0.786719 q -0.0528,0.027772 -0.29144,0.1252985 -0.23572,0.096528 -0.32672,0.127472 l 0.004,0.011742 q 0.4209,0.04355 0.67114,0.2401068 0.25023,0.1965565 0.36901,0.5458832 0.17169,0.5049092 -0.0476,0.880784 -0.21934,0.3758748 -0.81818,0.5795035 l -2.0167,0.6857498 z"
         style="font-weight:bold;-inkscape-font-specification:'Liberation Sans Bold'"
         id="path68222" />
      <path
         d="m 112.1461,11.8603 q -0.46661,0.138706 -0.84806,-0.165176 -0.3776,-0.301793 -0.57815,-0.976449 -0.19702,-0.662768 -0.0941,-1.0782861 0.10677,-0.4134291 0.51515,-0.6609772 l 0.32818,0.7014085 q -0.21029,0.1304408 -0.26034,0.3102868 -0.0492,0.182818 0.0639,0.563241 0.10425,0.350702 0.24112,0.484689 0.13687,0.133986 0.32708,0.07744 0.15455,-0.04594 0.20484,-0.203216 0.0541,-0.155186 0.0247,-0.482832 -0.0706,-0.7488723 -0.025,-1.0308919 0.0485,-0.2829029 0.19987,-0.4702158 0.15519,-0.1852243 0.43457,-0.2682711 0.46066,-0.1369389 0.82139,0.1407565 0.36459,0.2797839 0.55807,0.9306636 0.17051,0.5736067 0.051,0.9875977 -0.11866,0.416963 -0.51507,0.628606 l -0.29726,-0.717071 q 0.18556,-0.09397 0.23914,-0.261932 0.0566,-0.168841 -0.0336,-0.4719905 -0.0884,-0.2972054 -0.2098,-0.4228377 -0.11847,-0.1265157 -0.2968,-0.073507 -0.13968,0.041523 -0.18933,0.1791988 -0.0458,0.1397639 -0.0189,0.4261234 0.0349,0.400421 0.0383,0.71642 0.007,0.318087 -0.0536,0.52701 -0.0599,0.211895 -0.20733,0.368926 -0.14355,0.159119 -0.41995,0.241282 z"
         style="font-weight:bold;-inkscape-font-specification:'Liberation Sans Bold'"
         id="path68224" />
      <path
         d="m 111.54825,13.669461 q -0.0974,-0.371926 0.0509,-0.625523 0.15132,-0.254382 0.56224,-0.362012 l 1.91362,-0.501224 -0.10763,-0.410919 0.56989,-0.149268 0.11862,0.452911 0.83099,0.0644 0.13827,0.527896 -0.76185,0.199547 0.16105,0.614878 -0.56989,0.149268 -0.16105,-0.614878 -1.68567,0.441517 q -0.23695,0.06206 -0.32736,0.1819 -0.0874,0.11905 -0.0379,0.308012 0.0259,0.09898 0.11584,0.270946 l -0.5219,0.136698 q -0.18368,-0.285228 -0.28817,-0.684149 z"
         style="font-weight:bold;-inkscape-font-specification:'Liberation Sans Bold'"
         id="path68226" />
      <path
         d="m 112.02657,15.640747 q -0.10552,-0.475218 0.0926,-0.798711 0.20117,-0.324165 0.67033,-0.428341 0.50852,-0.112913 0.84814,0.15787 0.34029,0.27381 0.48615,0.902054 l 0.1687,0.702571 0.16648,-0.03697 q 0.32085,-0.07124 0.45035,-0.217514 0.13253,-0.146943 0.0761,-0.4012 -0.0524,-0.236095 -0.18626,-0.323893 -0.13013,-0.08544 -0.38438,-0.05757 l -0.15455,-0.896281 q 0.49639,-0.02447 0.8202,0.275236 0.32751,0.302057 0.46395,0.916511 0.13778,0.620507 -0.0933,1.024372 -0.23111,0.403864 -0.79411,0.528875 l -1.19258,0.264809 q -0.27545,0.06116 -0.36795,0.145222 -0.0888,0.08642 -0.0565,0.231705 0.0215,0.09686 0.0598,0.183633 l -0.46009,0.10216 q -0.035,-0.07164 -0.0635,-0.128816 -0.0286,-0.05718 -0.0511,-0.115698 -0.0225,-0.05852 -0.044,-0.126794 -0.0208,-0.06525 -0.041,-0.156053 -0.0713,-0.320848 0.0519,-0.510167 0.1238,-0.186293 0.42279,-0.284444 l -0.004,-0.01816 q -0.72404,-0.214012 -0.884,-0.934406 z m 1.79678,0.639619 -0.10284,-0.434524 q -0.078,-0.293945 -0.16001,-0.405948 -0.079,-0.112676 -0.20277,-0.155071 -0.12308,-0.03937 -0.30469,9.58e-4 -0.23307,0.05175 -0.32457,0.183232 -0.0878,0.133835 -0.0481,0.31242 0.0444,0.199773 0.18962,0.339028 0.14593,0.142282 0.35746,0.193772 0.21455,0.05082 0.42946,0.0031 z"
         style="font-weight:bold;-inkscape-font-specification:'Liberation Sans Bold'"
         id="path68228" />
      <path
         d="m 114.84217,21.189273 q -0.82045,0.131763 -1.32969,-0.125607 -0.50568,-0.2548 -0.60401,-0.867072 -0.0565,-0.352056 0.0552,-0.633792 0.11177,-0.281737 0.37742,-0.465714 l -9.9e-4,-0.0061 q -0.10715,0.01721 -0.29635,0.03189 -0.18871,0.01774 -0.24321,0.0108 l -0.13422,-0.83575 q 0.28864,-0.02123 0.76009,-0.09695 l 3.7869,-0.608177 0.13815,0.860242 -1.2674,0.203545 -0.54076,0.07428 0.002,0.01225 q 0.68347,0.188565 0.80688,0.956965 0.0944,0.587781 -0.30241,0.971821 -0.39326,0.38661 -1.20758,0.51739 z m -0.14406,-0.896978 q 0.56329,-0.09046 0.80921,-0.299535 0.24591,-0.20907 0.19035,-0.555004 -0.056,-0.348995 -0.37944,-0.485477 -0.31984,-0.133913 -0.87088,-0.04542 -0.52655,0.08456 -0.79193,0.309322 -0.26488,0.227819 -0.20883,0.576814 0.10964,0.682682 1.25152,0.499295 z"
         style="font-weight:bold;-inkscape-font-specification:'Liberation Sans Bold'"
         id="path68230" />
      <path
         d="m 113.23632,22.159429 4.57636,-0.478093 0.0905,0.866549 -4.57637,0.478092 z"
         style="font-weight:bold;-inkscape-font-specification:'Liberation Sans Bold'"
         id="path68232" />
      <path
         d="m 113.41554,25.290039 q -0.0291,-0.755983 0.40144,-1.17903 0.43363,-0.423166 1.29186,-0.456197 0.83034,-0.03196 1.29235,0.362946 0.46202,0.394901 0.49111,1.150885 0.0278,0.721902 -0.43778,1.121474 -0.46247,0.399454 -1.38576,0.434988 l -0.0248,9.54e-4 -0.0828,-2.150215 q -0.48954,0.01884 -0.73358,0.2082 -0.24083,0.192338 -0.22795,0.526954 0.0178,0.461646 0.4221,0.567097 l -0.0397,0.82379 q -0.92462,-0.321247 -0.96659,-1.411846 z m 2.92789,-0.112684 q -0.0118,-0.30673 -0.23203,-0.46581 -0.2201,-0.155982 -0.60465,-0.150491 l 0.0501,1.301283 q 0.40493,-0.04041 0.59976,-0.218564 0.19793,-0.178276 0.18684,-0.466418 z"
         style="font-weight:bold;-inkscape-font-specification:'Liberation Sans Bold'"
         id="path68234" />
      <path
         d="m 115.70945,34.500843 -1.78926,-0.583694 q -0.84009,-0.274057 -1.02472,0.291902 -0.0981,0.300666 0.0987,0.567083 0.19881,0.270326 0.60265,0.402066 l 1.70967,0.55773 -0.27021,0.828305 -2.47607,-0.807748 q -0.40679,-0.132701 -0.72104,-0.209126 l 0.25771,-0.789984 q 0.43601,0.103098 0.64529,0.171372 l 0.005,-0.01474 q -0.30872,-0.283348 -0.39013,-0.593648 -0.0824,-0.307352 0.0321,-0.658129 0.1654,-0.507005 0.56337,-0.677225 0.40093,-0.169259 1.00226,0.02691 l 2.02507,0.660621 z"
         style="font-weight:bold;-inkscape-font-specification:'Liberation Sans Bold'"
         id="path68236" />
      <path
         d="m 110.63236,38.335823 1.72284,0.757609 q 0.80891,0.355714 1.0498,-0.192074 0.1273,-0.289505 -0.0438,-0.578151 -0.16955,-0.28456 -0.55839,-0.455552 l -1.64621,-0.723909 0.35072,-0.797557 2.38416,1.048421 q 0.24693,0.108586 0.40678,0.168718 0.16144,0.06422 0.29007,0.11062 l -0.3345,0.760659 q -0.0577,-0.0152 -0.29949,-0.104602 -0.23898,-0.08815 -0.32696,-0.126846 l -0.005,0.01135 q 0.28081,0.316549 0.33241,0.630536 0.0516,0.313987 -0.0969,0.651742 -0.21467,0.488184 -0.63036,0.617005 -0.41568,0.128821 -0.99469,-0.125795 l -1.9499,-0.857459 z"
         style="font-weight:bold;-inkscape-font-specification:'Liberation Sans Bold'"
         id="path68238" />
      <path
         d="m 109.49327,42.842769 q -0.43359,-0.221268 -0.50035,-0.704378 -0.0654,-0.478939 0.25453,-1.10586 0.31428,-0.615874 0.67532,-0.845869 0.36239,-0.225825 0.82886,-0.12354 l -0.24593,0.734302 q -0.24225,-0.05052 -0.40251,0.04523 -0.16166,0.09851 -0.34206,0.452019 -0.1663,0.325888 -0.15955,0.517304 0.007,0.191416 0.1835,0.281615 0.14361,0.07329 0.28848,-0.006 0.14621,-0.07507 0.35078,-0.332693 0.46523,-0.591061 0.69268,-0.763914 0.23021,-0.171443 0.46897,-0.202762 0.24012,-0.02715 0.49973,0.105331 0.42807,0.21845 0.49787,0.668305 0.0712,0.454025 -0.2375,1.058852 -0.272,0.533021 -0.64403,0.750447 -0.37344,0.220187 -0.80648,0.10015 l 0.27912,-0.724323 q 0.19919,0.05988 0.35381,-0.02483 0.15738,-0.08329 0.30113,-0.364995 0.14094,-0.276176 0.1396,-0.450908 0.001,-0.173322 -0.16428,-0.257883 -0.12981,-0.06624 -0.26069,-7.55e-4 -0.12953,0.06966 -0.3075,0.295609 -0.25079,0.314101 -0.46624,0.545293 -0.21409,0.235362 -0.40219,0.344751 -0.18951,0.112151 -0.40454,0.124251 -0.21368,0.01627 -0.47053,-0.114798 z"
         style="font-weight:bold;-inkscape-font-specification:'Liberation Sans Bold'"
         id="path68240" />
      <path
         d="m 107.81772,43.738232 q 0.18407,-0.337542 0.46592,-0.420462 0.28456,-0.08144 0.65749,0.121941 l 1.73671,0.947112 0.20337,-0.37293 0.51721,0.282055 -0.22416,0.411039 0.56078,0.616609 -0.26128,0.479092 -0.69141,-0.377063 -0.30432,0.558033 -0.51721,-0.282056 0.30433,-0.558032 -1.52983,-0.83429 q -0.21505,-0.117275 -0.36302,-0.09202 -0.14525,0.02674 -0.23878,0.19823 -0.049,0.08983 -0.10143,0.276661 l -0.47365,-0.258303 q 0.0618,-0.333572 0.25928,-0.695613 z"
         style="font-weight:bold;-inkscape-font-specification:'Liberation Sans Bold'"
         id="path68242" />
      <path
         d="m 106.82522,45.510042 q 0.23957,-0.423758 0.60328,-0.531573 0.3664,-0.106289 0.78476,0.130233 0.45345,0.256359 0.52464,0.684844 0.0697,0.431184 -0.24233,0.995648 l -0.34475,0.634993 0.14845,0.08393 q 0.28611,0.16175 0.48022,0.139707 0.19681,-0.02052 0.32499,-0.247241 0.11903,-0.21053 0.0783,-0.36533 -0.0395,-0.150576 -0.24713,-0.299995 l 0.48489,-0.769472 q 0.38526,0.313975 0.42535,0.753371 0.0413,0.443621 -0.2685,0.991537 -0.31282,0.553315 -0.75481,0.698794 -0.44199,0.145479 -0.94402,-0.138347 l -1.06345,-0.601224 q -0.24561,-0.138861 -0.3706,-0.138287 -0.12381,0.0048 -0.19706,0.134355 -0.0488,0.08637 -0.0784,0.1765 l -0.41027,-0.231944 q 0.022,-0.07663 0.039,-0.138245 0.017,-0.06161 0.0395,-0.120171 0.0224,-0.05856 0.0521,-0.123691 0.0282,-0.06243 0.0739,-0.143405 0.16175,-0.286104 0.37992,-0.344409 0.21665,-0.0556 0.50452,0.07153 l 0.009,-0.0162 q -0.39485,-0.64352 -0.0317,-1.285905 z m 0.90724,1.677623 0.21434,-0.391722 q 0.13875,-0.270615 0.15273,-0.408745 0.0167,-0.136604 -0.0469,-0.250918 -0.0651,-0.111615 -0.22707,-0.203172 -0.20783,-0.117498 -0.3638,-0.08102 -0.1548,0.04071 -0.24483,0.199954 -0.10072,0.178141 -0.0859,0.378826 0.0132,0.203384 0.13598,0.383191 0.12544,0.181333 0.31707,0.289675 z"
         style="font-weight:bold;-inkscape-font-specification:'Liberation Sans Bold'"
         id="path68244" />
      <path
         d="m 105.40068,51.531022 q -0.72086,-0.41333 -0.95508,-0.933627 -0.23306,-0.516066 0.0754,-1.054025 0.17736,-0.309327 0.44141,-0.458156 0.26404,-0.14883 0.58628,-0.124896 l 0.003,-0.0054 q -0.0941,-0.05398 -0.2505,-0.161508 -0.15791,-0.104838 -0.19593,-0.144505 l 0.42104,-0.734315 q 0.23782,0.16495 0.65205,0.402461 l 3.32728,1.907797 -0.43338,0.755833 -1.11358,-0.638503 -0.46724,-0.2822 -0.006,0.01076 q 0.41297,0.576325 0.0258,1.251464 -0.29611,0.516441 -0.84614,0.565628 -0.54887,0.05342 -1.26436,-0.356827 z m 0.45189,-0.78811 q 0.49492,0.283779 0.8176,0.275792 0.32267,-0.008 0.49695,-0.311933 0.17582,-0.306637 0.0101,-0.616084 -0.16454,-0.305214 -0.6487,-0.582824 -0.46265,-0.265272 -0.81032,-0.257322 -0.34922,0.01064 -0.52504,0.317276 -0.34392,0.599825 0.65937,1.175095 z"
         style="font-weight:bold;-inkscape-font-specification:'Liberation Sans Bold'"
         id="path68246" />
      <path
         d="m 103.58564,51.302674 4.00329,2.268325 -0.42951,0.758037 -4.0033,-2.268325 z"
         style="font-weight:bold;-inkscape-font-specification:'Liberation Sans Bold'"
         id="path68248" />
      <path
         d="m 101.99841,54.011889 q 0.36354,-0.66347 0.95028,-0.805126 0.58946,-0.140165 1.34266,0.272548 0.72873,0.399304 0.92212,0.975501 0.1934,0.576197 -0.17015,1.239666 -0.34716,0.633559 -0.95188,0.737073 -0.60201,0.105003 -1.41232,-0.338999 l -0.0217,-0.01192 1.03402,-1.887082 q -0.42963,-0.23541 -0.73629,-0.198385 -0.30544,0.04123 -0.46635,0.3349 -0.222,0.405152 0.0707,0.703401 l -0.45738,0.686303 q -0.62808,-0.750744 -0.10362,-1.70788 z m 2.56958,1.407993 q 0.14751,-0.269194 0.0403,-0.518834 -0.10865,-0.24692 -0.44135,-0.43983 l -0.62578,1.142038 q 0.36813,0.173429 0.62682,0.120723 0.26141,-0.05122 0.39997,-0.304097 z"
         style="font-weight:bold;-inkscape-font-specification:'Liberation Sans Bold'"
         id="path68250" />
      <path
         d="m 101.5311,62.683719 -1.752863,-0.68527 q -0.823009,-0.32175 -1.039767,0.232699 -0.115152,0.294551 0.06609,0.571809 0.182998,0.281276 0.57862,0.435942 l 1.67489,0.654788 -0.31723,0.811459 -2.425709,-0.948315 q -0.39851,-0.155794 -0.707868,-0.250103 l 0.302558,-0.773917 q 0.429383,0.127915 0.634414,0.20807 l 0.0056,-0.01444 q -0.291973,-0.300574 -0.355469,-0.61503 -0.06462,-0.311567 0.06972,-0.65521 0.194178,-0.496693 0.601255,-0.643827 0.409965,-0.146005 0.999067,0.0843 l 1.983892,0.775585 z"
         style="font-weight:bold;-inkscape-font-specification:'Liberation Sans Bold'"
         id="path68252" />
      <path
         d="m 96.770272,66.425384 1.821577,0.473277 q 0.855271,0.222214 1.005752,-0.35697 0.07953,-0.306097 -0.135433,-0.56377 -0.212741,-0.253893 -0.623872,-0.360711 l -1.740551,-0.452225 0.219095,-0.843267 2.520799,0.654946 q 0.261081,0.06783 0.428471,0.101715 0.16962,0.03766 0.304,0.06297 l -0.20896,0.804254 q -0.0594,-0.0058 -0.31234,-0.05552 -0.249974,-0.04893 -0.343003,-0.0731 l -0.0031,0.012 q 0.327673,0.267737 0.428673,0.569482 0.101,0.301745 0.008,0.658858 -0.13411,0.516163 -0.523945,0.709603 -0.389833,0.193439 -1.002027,0.03438 L 96.551956,67.26565 Z"
         style="font-weight:bold;-inkscape-font-specification:'Liberation Sans Bold'"
         id="path68254" />
      <path
         d="m 97.144536,70.994908 q -0.485085,-0.04073 -0.729693,-0.46265 -0.241779,-0.418573 -0.182889,-1.119938 0.05785,-0.689006 0.305003,-1.038522 0.249982,-0.346167 0.720466,-0.428012 l 0.05024,0.772758 q -0.243356,0.04491 -0.355457,0.194182 -0.112361,0.152364 -0.145567,0.547847 -0.03061,0.364586 0.04807,0.539214 0.07868,0.174627 0.276424,0.19123 0.160665,0.01349 0.264771,-0.114674 0.106937,-0.124816 0.198801,-0.440698 0.206959,-0.723159 0.35208,-0.969229 0.148211,-0.245809 0.357367,-0.365154 0.211987,-0.115995 0.50242,-0.09161 0.478905,0.04021 0.713749,0.430197 0.237675,0.393336 0.180861,1.069983 -0.05007,0.596315 -0.31215,0.938355 -0.262341,0.345129 -0.708604,0.397892 l -0.01574,-0.776083 q 0.207035,-0.01996 0.318098,-0.15687 0.114154,-0.136655 0.140615,-0.451806 0.02594,-0.308972 -0.04142,-0.470202 -0.06427,-0.160972 -0.249654,-0.176537 -0.145217,-0.01219 -0.241587,0.09795 -0.09354,0.113495 -0.172762,0.389989 -0.11328,0.385649 -0.225215,0.681177 -0.109105,0.298877 -0.241821,0.471312 -0.132974,0.175525 -0.327437,0.268099 -0.191632,0.09592 -0.478976,0.0718 z"
         style="font-weight:bold;-inkscape-font-specification:'Liberation Sans Bold'"
         id="path68256" />
      <path
         d="m 96.201171,72.480502 q -0.01443,-0.384202 0.185364,-0.599593 0.202893,-0.215507 0.627374,-0.231451 l 1.97678,-0.07425 -0.01595,-0.424481 0.588696,-0.02211 0.01757,0.467859 0.797235,0.243098 0.0205,0.545318 -0.78699,0.02956 0.02386,0.635172 -0.588696,0.02211 -0.02386,-0.635172 -1.741301,0.06541 q -0.244774,0.0092 -0.359022,0.106569 -0.111149,0.09726 -0.103817,0.292457 0.0038,0.102247 0.05432,0.289621 l -0.539122,0.02025 q -0.117449,-0.318276 -0.132929,-0.730363 z"
         style="font-weight:bold;-inkscape-font-specification:'Liberation Sans Bold'"
         id="path68258" />
      <path
         d="m 96.353184,74.510314 q -0.05964,-0.483125 0.168498,-0.78621 0.231213,-0.303464 0.708184,-0.362343 0.516974,-0.06382 0.829175,0.238172 0.312582,0.305068 0.397748,0.944371 l 0.100817,0.715475 0.169248,-0.02089 q 0.326186,-0.04027 0.46907,-0.173496 0.14596,-0.133611 0.114052,-0.392098 -0.02963,-0.240024 -0.154465,-0.340206 -0.121378,-0.09749 -0.377129,-0.09403 l -0.06822,-0.906947 q 0.496458,0.02307 0.790158,0.352334 0.297156,0.331964 0.374269,0.956641 0.07787,0.630832 -0.190763,1.010771 -0.268635,0.379939 -0.841,0.450593 l -1.212428,0.149667 q -0.280028,0.03457 -0.380133,0.109407 -0.09665,0.07754 -0.07842,0.225244 0.01216,0.09847 0.04201,0.188509 l -0.467738,0.05774 q -0.02796,-0.07465 -0.05094,-0.134297 -0.02298,-0.05965 -0.03981,-0.12005 -0.01683,-0.0604 -0.03172,-0.130422 -0.01451,-0.06694 -0.02591,-0.159256 -0.04026,-0.326186 0.100377,-0.502878 0.141023,-0.173614 0.448024,-0.242753 l -0.0023,-0.01846 Q 96.443565,75.2427 96.353157,74.51032 Z m 1.727452,0.808344 -0.06086,-0.442361 q -0.04954,-0.300049 -0.1205,-0.419378 -0.06789,-0.119708 -0.187025,-0.173732 -0.118757,-0.05095 -0.303391,-0.02815 -0.236947,0.02925 -0.340586,0.151387 -0.100182,0.124835 -0.07777,0.306392 0.02507,0.203097 0.156363,0.355592 0.131673,0.155573 0.337314,0.227035 0.208719,0.07108 0.427202,0.04411 z"
         style="font-weight:bold;-inkscape-font-specification:'Liberation Sans Bold'"
         id="path68260" />
      <path
         d="m 99.103457,79.991739 q -0.81305,0.17158 -1.334225,-0.06067 -0.517502,-0.22986 -0.645547,-0.836614 -0.07363,-0.348883 0.02428,-0.635731 0.09791,-0.286847 0.354273,-0.483548 l -0.0013,-0.0061 q -0.106182,0.02241 -0.294443,0.04629 -0.187621,0.02692 -0.242396,0.02263 l -0.174781,-0.828219 q 0.287262,-0.03527 0.754462,-0.133865 l 3.75277,-0.791958 0.17991,0.852489 -1.25598,0.265053 -0.53651,0.100544 0.0026,0.01214 q 0.69185,0.155041 0.85255,0.916517 0.12292,0.582483 -0.25471,0.9854 -0.373956,0.405311 -1.180938,0.575611 z m -0.187586,-0.888894 q 0.558213,-0.117801 0.793647,-0.338605 0.235433,-0.220803 0.163087,-0.563619 -0.07298,-0.345849 -0.40264,-0.466414 -0.325982,-0.118171 -0.87206,-0.0029 -0.521808,0.110118 -0.775916,0.347538 -0.253469,0.240454 -0.180483,0.586304 0.14277,0.67653 1.274365,0.437726 z"
         style="font-weight:bold;-inkscape-font-specification:'Liberation Sans Bold'"
         id="path68262" />
      <path
         d="m 97.647719,81.017694 4.447511,-1.179538 0.22335,0.842151 -4.447512,1.179538 z"
         style="font-weight:bold;-inkscape-font-specification:'Liberation Sans Bold'"
         id="path68264" />
      <path
         d="m 98.447201,84.05397 q -0.222657,-0.723036 0.08451,-1.242627 0.310132,-0.520504 1.130956,-0.773274 0.794153,-0.244557 1.342233,0.01815 0.54808,0.26271 0.77073,0.985746 0.21262,0.69044 -0.13444,1.196363 -0.34411,0.505011 -1.22716,0.776944 l -0.0237,0.0073 -0.6333,-2.056504 q -0.468195,0.144179 -0.655293,0.389963 -0.183222,0.247835 -0.08467,0.567867 0.135966,0.441526 0.553816,0.439377 l 0.173664,0.806253 q -0.976139,-0.07249 -1.297349,-1.115561 z m 2.800279,-0.862338 q -0.0903,-0.293363 -0.34408,-0.390414 -0.25283,-0.09409 -0.62301,0.01017 l 0.38326,1.244571 q 0.38089,-0.143247 0.52331,-0.365541 0.14539,-0.223206 0.0605,-0.49879 z"
         style="font-weight:bold;-inkscape-font-specification:'Liberation Sans Bold'"
         id="path68266" />
      <path
         d="m 104.43145,90.496835 -1.73219,0.735967 q -0.8133,0.345553 -0.58051,0.893461 0.12367,0.291077 0.44711,0.362521 0.32751,0.07309 0.71847,-0.09302 l 1.65514,-0.70323 0.34071,0.801887 -2.39711,1.018472 q -0.39381,0.16732 -0.68089,0.316246 l -0.32494,-0.764789 q 0.39638,-0.20884 0.59899,-0.294925 l -0.006,-0.01427 q -0.4189,-0.01067 -0.68419,-0.191047 -0.26408,-0.177519 -0.40836,-0.517109 -0.20855,-0.490835 -0.0205,-0.880683 0.19095,-0.391061 0.7731,-0.638404 l 1.96049,-0.832965 z"
         style="font-weight:bold;-inkscape-font-specification:'Liberation Sans Bold'"
         id="path68268" />
      <path
         d="m 103.48024,96.585755 1.7034,-0.80035 q 0.79978,-0.375782 0.5453,-0.91739 -0.13449,-0.286239 -0.46451,-0.347003 -0.32589,-0.05927 -0.71035,0.121364 l -1.62763,0.764749 -0.37051,-0.78856 2.35726,-1.107567 q 0.24415,-0.114713 0.39454,-0.195651 0.15451,-0.07945 0.27403,-0.145885 l 0.35337,0.752079 q -0.0494,0.03347 -0.27569,0.15694 -0.22352,0.122151 -0.31052,0.163026 l 0.005,0.01122 q 0.42313,-0.0035 0.69367,0.163959 0.27055,0.167501 0.42745,0.501446 0.22679,0.482677 0.0506,0.880617 -0.17616,0.397941 -0.74863,0.666922 l -1.92791,0.905832 z"
         style="font-weight:bold;-inkscape-font-specification:'Liberation Sans Bold'"
         id="path68270" />
      <path
         d="m 106.39966,100.18528 q -0.43172,0.22491 -0.86401,-8.9e-4 -0.42809,-0.224477 -0.75328,-0.848684 -0.31946,-0.613207 -0.29745,-1.040712 0.0262,-0.426188 0.38005,-0.74688 l 0.45558,0.626198 q -0.18165,0.168052 -0.19658,0.354134 -0.0135,0.188831 0.16986,0.540806 0.16904,0.324478 0.32889,0.429991 0.15986,0.105513 0.33584,0.01383 0.14299,-0.07449 0.16246,-0.238461 0.0236,-0.16265 -0.0676,-0.478714 -0.2117,-0.721784 -0.22061,-1.007319 -0.006,-0.286969 0.10679,-0.499644 0.11714,-0.211357 0.37562,-0.346016 0.42622,-0.222045 0.83318,-0.01802 0.41114,0.205345 0.72487,0.807552 0.27648,0.530713 0.23785,0.959882 -0.0372,0.431918 -0.38612,0.715084 l -0.4282,-0.647455 q 0.16429,-0.127546 0.18496,-0.302629 0.0234,-0.176515 -0.12271,-0.456995 -0.14325,-0.274981 -0.28638,-0.375225 -0.14037,-0.101677 -0.30536,-0.01572 -0.12924,0.06733 -0.15179,0.211934 -0.0184,0.145921 0.0625,0.42194 0.11043,0.386471 0.17383,0.696064 0.0676,0.31091 0.0476,0.527585 -0.0185,0.219425 -0.13339,0.401621 -0.11066,0.183513 -0.36639,0.316743 z"
         style="font-weight:bold;-inkscape-font-specification:'Liberation Sans Bold'"
         id="path68272" />
    </g>
    <text
       xml:space="preserve"
       style="font-style:normal;font-variant:normal;font-weight:normal;font-stretch:normal;font-size:6.35px;line-height:1.25;font-family:'Liberation Sans';-inkscape-font-specification:'Liberation Sans';stroke-width:0.264583"
       x="29.263723"
       y="81.166267"
       id="text60394"><tspan
         sodipodi:role="line"
         id="tspan60392"
         style="font-style:normal;font-variant:normal;font-weight:normal;font-stretch:normal;font-size:6.35px;font-family:'Liberation Sans';-inkscape-font-specification:'Liberation Sans';stroke-width:0.264583"
         x="29.263723"
         y="81.166267">stable</tspan></text>
    <text
       xml:space="preserve"
       style="font-style:normal;font-variant:normal;font-weight:normal;font-stretch:normal;font-size:6.35px;line-height:1.25;font-family:'Liberation Sans';-inkscape-font-specification:'Liberation Sans';stroke-width:0.264583"
       x="11.674515"
       y="20.482088"
       id="text60398"><tspan
         sodipodi:role="line"
         id="tspan60396"
         style="font-style:normal;font-variant:normal;font-weight:normal;font-stretch:normal;font-size:6.35px;font-family:'Liberation Sans';-inkscape-font-specification:'Liberation Sans';stroke-width:0.264583"
         x="11.674515"
         y="20.482088">stable</tspan></text>
    <text
       xml:space="preserve"
       style="font-style:normal;font-variant:normal;font-weight:normal;font-stretch:normal;font-size:6.35px;line-height:1.25;font-family:'Liberation Sans';-inkscape-font-specification:'Liberation Sans';stroke-width:0.264583"
       x="124.44846"
       y="77.23745"
       id="text60402"><tspan
         sodipodi:role="line"
         id="tspan60400"
         style="font-style:normal;font-variant:normal;font-weight:normal;font-stretch:normal;font-size:6.35px;font-family:'Liberation Sans';-inkscape-font-specification:'Liberation Sans';stroke-width:0.264583"
         x="124.44846"
         y="77.23745">stable</tspan></text>
    <text
       xml:space="preserve"
       style="font-style:normal;font-variant:normal;font-weight:normal;font-stretch:normal;font-size:6.35px;line-height:1.25;font-family:'Liberation Sans';-inkscape-font-specification:'Liberation Sans';stroke-width:0.264583"
       x="162.34087"
       y="38.795258"
       id="text60406"><tspan
         sodipodi:role="line"
         id="tspan60404"
         style="font-style:normal;font-variant:normal;font-weight:normal;font-stretch:normal;font-size:6.35px;font-family:'Liberation Sans';-inkscape-font-specification:'Liberation Sans';stroke-width:0.264583"
         x="162.34087"
         y="38.795258">stable</tspan></text>
    <path
       style="fill:none;stroke:none;stroke-width:0.264583px;stroke-linecap:butt;stroke-linejoin:miter;stroke-opacity:0.99215698"
       d="m 106.93177,0.09532781 c 0,0 7.56716,16.80203119 6.46113,29.07545819 -1.10603,12.273427 -16.438233,28.114955 -17.12991,40.696014 -0.691677,12.581059 8.94892,30.14586 8.94892,30.14586"
       id="path60441"
       sodipodi:nodetypes="czzc" />
    <rect
       style="fill:#9d9a95;fill-opacity:1;stroke:#333333;stroke-width:0.999815;stroke-linecap:round;stroke-linejoin:miter;stroke-miterlimit:4;stroke-dasharray:none;stroke-opacity:0.992157"
       id="rect67060"
       width="6.0712528"
       height="6.0712528"
       x="100.93946"
       y="-67.593674"
       ry="0"
       transform="rotate(45)" />
  </g>
</svg>
