<?xml version="1.0" encoding="UTF-8" standalone="no"?>
<!-- Created with Inkscape (http://www.inkscape.org/) -->

<svg
   width="200mm"
   height="100mm"
   viewBox="0 0 200 100"
   version="1.1"
   id="svg5"
   inkscape:version="1.1.2 (0a00cf5339, 2022-02-04)"
   sodipodi:docname="chart.svg"
   xmlns:inkscape="http://www.inkscape.org/namespaces/inkscape"
   xmlns:sodipodi="http://sodipodi.sourceforge.net/DTD/sodipodi-0.dtd"
   xmlns="http://www.w3.org/2000/svg"
   xmlns:svg="http://www.w3.org/2000/svg">
  <sodipodi:namedview
     id="namedview7"
     pagecolor="#ffffff"
     bordercolor="#666666"
     borderopacity="1.0"
     inkscape:pageshadow="2"
     inkscape:pageopacity="0.0"
     inkscape:pagecheckerboard="0"
     inkscape:document-units="mm"
     showgrid="false"
     width="200mm"
     inkscape:zoom="0.88849029"
     inkscape:cx="394.4894"
     inkscape:cy="119.86625"
     inkscape:window-width="1850"
     inkscape:window-height="1016"
     inkscape:window-x="0"
     inkscape:window-y="0"
     inkscape:window-maximized="1"
     inkscape:current-layer="layer1" />
  <defs
     id="defs2">
    <marker
       style="overflow:visible;"
       id="Arrow1Lend"
       refX="0.0"
       refY="0.0"
       orient="auto"
       inkscape:stockid="Arrow1Lend"
       inkscape:isstock="true">
      <path
         transform="scale(0.8) rotate(180) translate(12.5,0)"
         style="fill-rule:evenodd;fill:context-stroke;stroke:context-stroke;stroke-width:1.0pt;"
         d="M 0.0,0.0 L 5.0,-5.0 L -12.5,0.0 L 5.0,5.0 L 0.0,0.0 z "
         id="path942" />
    </marker>
  </defs>
  <g
     inkscape:label="Livello 1"
     inkscape:groupmode="layer"
     id="layer1">
    <path
       style="fill:none;stroke:#000000;stroke-width:0.507143;stroke-linecap:butt;stroke-linejoin:miter;stroke-miterlimit:4;stroke-dasharray:none;stroke-opacity:1;marker-end:url(#Arrow1Lend)"
       d="M 7.575396,99.985911 V 0.98454854"
       id="path857" />
    <path
       style="fill:none;stroke:#000000;stroke-width:0.507143;stroke-linecap:butt;stroke-linejoin:miter;stroke-miterlimit:4;stroke-dasharray:none;stroke-opacity:1;marker-end:url(#Arrow1Lend)"
       d="m 0,92.575396 198.24813,0"
       id="path1207"
       sodipodi:nodetypes="cc" />
    <path
       sodipodi:type="star"
       style="fill:#fe6310;fill-opacity:1;stroke:#662400;stroke-width:15.0348;stroke-linecap:round;stroke-linejoin:round;stroke-miterlimit:4;stroke-dasharray:none;stroke-opacity:1"
       id="path1467"
       inkscape:flatsided="false"
       sodipodi:sides="5"
       sodipodi:cx="67.090332"
       sodipodi:cy="-281.73453"
       sodipodi:r1="69.392136"
       sodipodi:r2="34.696068"
       sodipodi:arg1="-1.5707963"
       sodipodi:arg2="-0.9424778"
       inkscape:rounded="0"
       inkscape:randomized="0"
       d="m 67.090334,-351.12666 20.393835,41.32242 45.602011,6.62636 -32.99793,32.16503 7.78975,45.41774 -40.787668,-21.44335 -40.787675,21.44335 7.789754,-45.41774 -32.9979212,-32.16503 45.6020052,-6.62636 z"
       transform="matrix(0.06649986,0,0,0.06649986,0.4270652,13.961155)"
       inkscape:transform-center-y="-0.44064873" />
    <path
       id="circle4318"
       style="fill:#015ffb;fill-opacity:1;stroke:#002666;stroke-width:0.999815;stroke-linecap:round;stroke-linejoin:round;stroke-miterlimit:4;stroke-dasharray:none;stroke-opacity:1"
       d="m 14.127863,-9.3886912 a 4.3886665,4.3886665 0 0 0 -4.388688,4.3886876 4.3886665,4.3886665 0 0 0 4.388688,4.38868657 4.3886665,4.3886665 0 0 0 4.314906,-3.59662087 3.4093004,3.4093004 0 0 1 -1.330754,0.2738197 3.4093004,3.4093004 0 0 1 -3.409296,-3.4093015 3.4093004,3.4093004 0 0 1 0.679576,-2.0376167 4.3886665,4.3886665 0 0 0 -0.254432,-0.00767 z" />
    <circle
       style="fill:#12d20e;fill-opacity:1;stroke:#086006;stroke-width:0.999815;stroke-linecap:round;stroke-linejoin:round;stroke-miterlimit:4;stroke-dasharray:none;stroke-opacity:1"
       id="path7073"
       cx="23.367163"
       cy="-5.0000038"
       r="4.3886867" />
    <path
       style="fill:#ffb100;fill-opacity:1;stroke:#664700;stroke-width:0.999815;stroke-linecap:butt;stroke-linejoin:miter;stroke-miterlimit:4;stroke-dasharray:none;stroke-opacity:0.992157"
       d="M 28.217773,-0.65325413 V -6.6541597 l 1.651308,1.6027089 7.014395,-4.3721991 -4.350751,7.0718189 1.786432,1.73691157 z"
       id="path9887" />
    <rect
       style="fill:#9d9a95;fill-opacity:1;stroke:#333333;stroke-width:0.999815;stroke-linecap:round;stroke-linejoin:miter;stroke-miterlimit:4;stroke-dasharray:none;stroke-opacity:0.992157"
       id="rect14141"
       width="6.0712528"
       height="6.0712528"
       x="23.018257"
       y="-36.16058"
       ry="0"
       transform="rotate(45)" />
  </g>
</svg>
